<svg xmlns="http://www.w3.org/2000/svg" viewBox="148 430 1298 281">
<defs><linearGradient id="rvWave" gradientUnits="userSpaceOnUse" x1="769.7474" y1="675.332" x2="914.4805" y2="675.332">
	<stop  offset="0" style="stop-color:#96B7DA"/>
	<stop  offset="0.5" style="stop-color:#7AA7D1"/>
	<stop  offset="0.5615" style="stop-color:#6EA2CE"/>
	<stop  offset="0.7412" style="stop-color:#4F95C7"/>
	<stop  offset="0.8937" style="stop-color:#3C8EC3"/>
	<stop  offset="1" style="stop-color:#358BC1"/>
</linearGradient></defs>
<g id="mark">
<g>
	<path fill="currentColor" d="M225,580.3c-19,0-35.3-6.3-49-19v72.2h-23.7V434.8H176v19c13.7-12.6,30.1-19,49-19c9.9,0,19.3,1.9,28.1,5.8
		c8.8,3.8,16.5,9.1,23.2,15.7s11.9,14.4,15.8,23.2c3.9,8.8,5.8,18.2,5.8,28.1c0,10-1.9,19.4-5.8,28.2c-3.8,8.8-9.1,16.5-15.7,23.1
		c-6.6,6.6-14.4,11.8-23.2,15.6C244.3,578.4,234.9,580.3,225,580.3z M225,556.7c6.7,0,13-1.3,19-3.9c6-2.6,11.2-6.1,15.6-10.6
		c4.5-4.5,8-9.7,10.6-15.6c2.6-6,3.9-12.3,3.9-19.1c0-6.7-1.3-13-3.9-19c-2.6-6-6.2-11.2-10.6-15.6c-4.5-4.5-9.7-8-15.6-10.6
		c-6-2.6-12.3-3.9-19-3.9c-6.8,0-13.1,1.3-19,3.9c-5.9,2.6-11.1,6.1-15.6,10.6c-4.5,4.5-8,9.7-10.6,15.6c-2.6,6-3.9,12.3-3.9,19
		c0,6.8,1.3,13.1,3.9,19.1s6.1,11.2,10.6,15.6c4.5,4.5,9.7,8,15.6,10.6C211.9,555.4,218.2,556.7,225,556.7z"/>
	<path fill="currentColor" d="M455.7,476.8l-71.6,103.4h-23.7V434.7h23.7v103.9L455.7,435h23.7v144.3h-23.7V476.8z"/>
	<path fill="currentColor" d="M614.2,580.1h-29h-23.7V434.6h52.7c5.7,0,11.1,1.1,16.2,3.3c5.1,2.2,9.6,5.2,13.4,9.1
		c3.8,3.8,6.9,8.3,9.1,13.4c2.2,5.1,3.3,10.5,3.3,16.3c0,11.7-4.1,21.7-12.3,29.8l-0.9,0.9l0.9,0.9c8.2,8.2,12.3,18.1,12.3,29.8
		c0,5.9-1.1,11.4-3.4,16.5c-2.3,5.1-5.3,9.5-9.1,13.3c-3.8,3.8-8.2,6.8-13.3,8.9C625.3,579.1,619.9,580.1,614.2,580.1z M614.2,457.3
		h-29v38.7h29c2.6,0,5.1-0.5,7.4-1.5c2.3-1,4.4-2.4,6.2-4.1c1.8-1.8,3.1-3.8,4.1-6.2c1-2.3,1.5-4.9,1.5-7.6c0-2.6-0.5-5.1-1.6-7.4
		c-1-2.3-2.4-4.4-4.2-6.2c-1.8-1.8-3.8-3.2-6.1-4.2C619.3,457.8,616.8,457.3,614.2,457.3z M614.2,518.8h-29v38.6h29
		c2.6,0,5.1-0.5,7.4-1.5c2.3-1,4.3-2.4,6.1-4.1c1.8-1.8,3.2-3.8,4.2-6.2c1-2.3,1.6-4.8,1.6-7.4c0-2.6-0.5-5.1-1.6-7.4
		c-1-2.3-2.4-4.4-4.2-6.2s-3.8-3.2-6.1-4.2C619.3,519.3,616.8,518.8,614.2,518.8z"/>
	<path fill="currentColor" d="M784.9,580.1h-29h-23.7V434.8h23.7v61.2h29c5.7,0,11.1,1.1,16.2,3.3c5.1,2.2,9.6,5.2,13.4,9.1
		c3.8,3.8,6.9,8.3,9.1,13.4c2.2,5.1,3.3,10.5,3.3,16.3c0,5.9-1.1,11.4-3.4,16.5c-2.3,5.1-5.3,9.5-9.1,13.3
		c-3.8,3.8-8.2,6.8-13.3,8.9C796,579.1,790.6,580.1,784.9,580.1z M784.9,518.8h-29v38.6h29c2.6,0,5.1-0.5,7.4-1.5
		c2.3-1,4.3-2.4,6.1-4.1c1.8-1.8,3.2-3.8,4.2-6.2c1-2.3,1.6-4.8,1.6-7.4c0-2.6-0.5-5.1-1.6-7.4c-1-2.3-2.4-4.4-4.2-6.2
		s-3.8-3.2-6.1-4.2C790,519.3,787.5,518.8,784.9,518.8z"/>
	<path fill="currentColor" d="M952.2,580.3c-20.1,0-37.3-7.1-51.5-21.3c-14.2-14.2-21.3-31.3-21.3-51.5c0-20,7.1-37.1,21.3-51.3
		c14.3-14.3,31.4-21.4,51.5-21.4c9.9,0,19.3,1.9,28.1,5.8c8.8,3.8,16.5,9.1,23.2,15.7s11.9,14.4,15.8,23.2
		c3.9,8.8,5.8,18.2,5.8,28.1c0,1.9-0.1,3.8-0.3,5.8c-0.2,2-0.5,4-0.8,6.1H904.5c1.4,5.3,3.5,10.2,6.4,14.8
		c2.9,4.5,6.5,8.4,10.7,11.8c4.2,3.3,8.9,6,14.1,7.9c5.2,1.9,10.7,2.8,16.5,2.8c4.6,0,9-0.6,13.3-1.9c4.3-1.3,8.3-3,12-5.3
		c3.7-2.3,7.1-4.9,10.1-8.1c3-3.1,5.6-6.5,7.7-10.2h25.9c-2.4,7-5.9,13.6-10.4,19.6c-4.5,6-9.8,11.2-15.8,15.6
		c-6,4.4-12.6,7.8-19.9,10.2C967.7,579.1,960.1,580.3,952.2,580.3z M904.5,495.8h95.3c-1.4-5.2-3.5-10.1-6.6-14.7
		c-3-4.6-6.6-8.5-10.8-11.8c-4.2-3.3-8.9-6-14-7.9c-5.1-1.9-10.6-2.8-16.2-2.8s-11.1,0.9-16.3,2.8c-5.2,1.9-9.9,4.5-14.1,7.8
		c-4.2,3.3-7.8,7.2-10.8,11.8C908,485.5,905.9,490.5,904.5,495.8z"/>
	<path fill="currentColor" d="M1169.2,580.3c-19,0-35.3-6.3-49-19v72.2h-23.7V434.8h23.7v19c13.7-12.6,30.1-19,49-19
		c9.9,0,19.3,1.9,28.1,5.8c8.8,3.8,16.5,9.1,23.2,15.7s11.9,14.4,15.8,23.2c3.9,8.8,5.8,18.2,5.8,28.1c0,10-1.9,19.4-5.8,28.2
		c-3.8,8.8-9.1,16.5-15.7,23.1c-6.6,6.6-14.4,11.8-23.2,15.6C1188.5,578.4,1179.1,580.3,1169.2,580.3z M1169.2,556.7
		c6.7,0,13-1.3,19-3.9c6-2.6,11.2-6.1,15.6-10.6c4.5-4.5,8-9.7,10.6-15.6c2.6-6,3.9-12.3,3.9-19.1c0-6.7-1.3-13-3.9-19
		c-2.6-6-6.2-11.2-10.6-15.6c-4.5-4.5-9.7-8-15.6-10.6c-6-2.6-12.3-3.9-19-3.9c-6.8,0-13.1,1.3-19,3.9c-5.9,2.6-11.1,6.1-15.6,10.6
		c-4.5,4.5-8,9.7-10.6,15.6c-2.6,6-3.9,12.3-3.9,19c0,6.8,1.3,13.1,3.9,19.1s6.1,11.2,10.6,15.6c4.5,4.5,9.7,8,15.6,10.6
		C1156.1,555.4,1162.4,556.7,1169.2,556.7z"/>
	<path fill="currentColor" d="M1368.5,580.3c-20.1,0-37.3-7.1-51.5-21.3c-14.2-14.2-21.3-31.3-21.3-51.5c0-20,7.1-37.1,21.3-51.3
		c14.3-14.3,31.4-21.4,51.5-21.4c18.8,0,35.2,6.3,49.2,19v-19h23.7v145.4h-23.7v-19C1403.6,574,1387.2,580.3,1368.5,580.3z
		 M1368.5,556.7c6.7,0,13-1.3,19-3.9c6-2.6,11.2-6.1,15.6-10.6c4.5-4.5,8-9.7,10.6-15.6c2.6-6,3.9-12.3,3.9-19.1
		c0-6.7-1.3-13-3.9-19c-2.6-6-6.2-11.2-10.6-15.6c-4.5-4.5-9.7-8-15.6-10.6c-6-2.6-12.3-3.9-19-3.9c-6.8,0-13.1,1.3-19,3.9
		c-5.9,2.6-11.1,6.1-15.6,10.6c-4.5,4.5-8,9.7-10.6,15.6c-2.6,6-3.9,12.3-3.9,19c0,6.8,1.3,13.1,3.9,19.1s6.1,11.2,10.6,15.6
		c4.5,4.5,9.7,8,15.6,10.6C1355.3,555.4,1361.7,556.7,1368.5,556.7z"/>
</g><g>
	<path fill="currentColor" d="M226.4,705.7l27.8-36.1l-0.1,4.4l-26.5-34.1h10l21.7,28.2l-3.8-0.1l21.7-28.1h9.8l-26.7,34.5l0.1-4.8
		l28.1,36.1h-10.2l-23-30.1l3.5,0.5l-22.6,29.6H226.4z"/>
	<path fill="currentColor" d="M390.6,706.3c-6.4,0-12.2-1.4-17.2-4.3c-5-2.9-9-6.9-11.9-12c-2.9-5.1-4.4-10.9-4.4-17.3
		c0-6.6,1.5-12.4,4.4-17.4c2.9-5,6.9-8.9,11.9-11.8c5-2.8,10.7-4.3,17.2-4.3c6.5,0,12.3,1.4,17.4,4.3c5.1,2.9,9,6.8,11.9,11.8
		c2.9,5,4.3,10.8,4.3,17.4c0,6.5-1.4,12.3-4.3,17.4c-2.9,5.1-6.9,9-12,11.9C402.9,704.9,397.1,706.3,390.6,706.3z M390.6,698.4
		c4.8,0,9-1.1,12.7-3.2c3.7-2.1,6.6-5.1,8.7-9s3.2-8.4,3.2-13.5c0-5.2-1.1-9.7-3.2-13.5c-2.1-3.8-5-6.8-8.7-9
		c-3.7-2.1-7.9-3.2-12.5-3.2c-4.7,0-8.9,1.1-12.5,3.2c-3.7,2.1-6.6,5.1-8.8,9c-2.2,3.8-3.3,8.4-3.3,13.5c0,5.1,1.1,9.6,3.3,13.5
		c2.2,3.9,5.1,6.9,8.7,9S386,698.4,390.6,698.4z"/>
	<path fill="currentColor" d="M493.6,705.6l0.6-7.7c0.6,0.1,1.1,0.2,1.7,0.3c0.5,0.1,1,0.2,1.4,0.2c2.7,0,4.8-1,6.5-3c1.6-2,2.9-4.7,3.7-8
		c0.8-3.3,1.4-7.1,1.8-11.4c0.3-4.2,0.6-8.5,0.9-12.7l1.1-23.5h48.3v65.9h-8.9V645l2.3,2.6h-35.9l2.1-2.8l-1,19.1
		c-0.3,5.7-0.7,11.1-1.3,16.3c-0.6,5.2-1.6,9.7-2.9,13.7c-1.3,3.9-3.1,7-5.3,9.2c-2.3,2.2-5.1,3.3-8.7,3.3c-1,0-2-0.1-3.1-0.3
		C495.9,706,494.8,705.8,493.6,705.6z"/>
	<path fill="currentColor" d="M635.6,705.6l0.6-7.7c0.6,0.1,1.1,0.2,1.7,0.3c0.5,0.1,1,0.2,1.4,0.2c2.7,0,4.8-1,6.5-3c1.6-2,2.9-4.7,3.7-8
		c0.8-3.3,1.4-7.1,1.8-11.4c0.3-4.2,0.6-8.5,0.9-12.7l1.1-23.5h48.3v65.9h-8.9V645l2.3,2.6h-35.9l2.1-2.8l-1,19.1
		c-0.3,5.7-0.7,11.1-1.3,16.3c-0.6,5.2-1.6,9.7-2.9,13.7c-1.3,3.9-3.1,7-5.3,9.2c-2.3,2.2-5.1,3.3-8.7,3.3c-1,0-2-0.1-3.1-0.3
		C637.9,706,636.8,705.8,635.6,705.6z"/>
</g>
<path fill="url(#rvWave)" d="M770.3,703.4c0,0-6.1-37.8,23.7-53.8c29.8-16,59.8,15.3,59.8,15.3s26.9,37.9,59.1,14c0.8-0.6,1.9,0.3,1.5,1.2
	c-5,11.6-25,46.5-71.7,8.2C787.6,642.9,770.3,703.4,770.3,703.4z"/>
</g>
</svg>
