<?xml version="1.0" encoding="utf-8"?>
<!-- Generator: Adobe Illustrator 27.2.0, SVG Export Plug-In . SVG Version: 6.00 Build 0)  -->
<svg version="1.1" id="Слой_1" xmlns="http://www.w3.org/2000/svg" xmlns:xlink="http://www.w3.org/1999/xlink" x="0px" y="0px"
	 viewBox="0 0 3840 2160" style="enable-background:new 0 0 3840 2160;" xml:space="preserve">
<style type="text/css">
	.st0{fill:#FFFFFF;}
	.st1{fill:#173A67;}
	.st2{fill:url(#SVGID_1_);}
	.st3{fill:#1A3F56;}
	.st4{fill:url(#SVGID_00000172404379234070235150000005621518881053393064_);}
	.st5{fill:none;stroke:#173A67;stroke-width:5;stroke-miterlimit:10;}
</style>
<rect class="st0" width="1632" height="1080"/>
<g>
	<path class="st1" d="M225,580.3c-19,0-35.3-6.3-49-19v72.2h-23.7V434.8H176v19c13.7-12.6,30.1-19,49-19c9.9,0,19.3,1.9,28.1,5.8
		c8.8,3.8,16.5,9.1,23.2,15.7s11.9,14.4,15.8,23.2c3.9,8.8,5.8,18.2,5.8,28.1c0,10-1.9,19.4-5.8,28.2c-3.8,8.8-9.1,16.5-15.7,23.1
		c-6.6,6.6-14.4,11.8-23.2,15.6C244.3,578.4,234.9,580.3,225,580.3z M225,556.7c6.7,0,13-1.3,19-3.9c6-2.6,11.2-6.1,15.6-10.6
		c4.5-4.5,8-9.7,10.6-15.6c2.6-6,3.9-12.3,3.9-19.1c0-6.7-1.3-13-3.9-19c-2.6-6-6.2-11.2-10.6-15.6c-4.5-4.5-9.7-8-15.6-10.6
		c-6-2.6-12.3-3.9-19-3.9c-6.8,0-13.1,1.3-19,3.9c-5.9,2.6-11.1,6.1-15.6,10.6c-4.5,4.5-8,9.7-10.6,15.6c-2.6,6-3.9,12.3-3.9,19
		c0,6.8,1.3,13.1,3.9,19.1s6.1,11.2,10.6,15.6c4.5,4.5,9.7,8,15.6,10.6C211.9,555.4,218.2,556.7,225,556.7z"/>
	<path class="st1" d="M455.7,476.8l-71.6,103.4h-23.7V434.7h23.7v103.9L455.7,435h23.7v144.3h-23.7V476.8z"/>
	<path class="st1" d="M614.2,580.1h-29h-23.7V434.6h52.7c5.7,0,11.1,1.1,16.2,3.3c5.1,2.2,9.6,5.2,13.4,9.1
		c3.8,3.8,6.9,8.3,9.1,13.4c2.2,5.1,3.3,10.5,3.3,16.3c0,11.7-4.1,21.7-12.3,29.8l-0.9,0.9l0.9,0.9c8.2,8.2,12.3,18.1,12.3,29.8
		c0,5.9-1.1,11.4-3.4,16.5c-2.3,5.1-5.3,9.5-9.1,13.3c-3.8,3.8-8.2,6.8-13.3,8.9C625.3,579.1,619.9,580.1,614.2,580.1z M614.2,457.3
		h-29v38.7h29c2.6,0,5.1-0.5,7.4-1.5c2.3-1,4.4-2.4,6.2-4.1c1.8-1.8,3.1-3.8,4.1-6.2c1-2.3,1.5-4.9,1.5-7.6c0-2.6-0.5-5.1-1.6-7.4
		c-1-2.3-2.4-4.4-4.2-6.2c-1.8-1.8-3.8-3.2-6.1-4.2C619.3,457.8,616.8,457.3,614.2,457.3z M614.2,518.8h-29v38.6h29
		c2.6,0,5.1-0.5,7.4-1.5c2.3-1,4.3-2.4,6.1-4.1c1.8-1.8,3.2-3.8,4.2-6.2c1-2.3,1.6-4.8,1.6-7.4c0-2.6-0.5-5.1-1.6-7.4
		c-1-2.3-2.4-4.4-4.2-6.2s-3.8-3.2-6.1-4.2C619.3,519.3,616.8,518.8,614.2,518.8z"/>
	<path class="st1" d="M784.9,580.1h-29h-23.7V434.8h23.7v61.2h29c5.7,0,11.1,1.1,16.2,3.3c5.1,2.2,9.6,5.2,13.4,9.1
		c3.8,3.8,6.9,8.3,9.1,13.4c2.2,5.1,3.3,10.5,3.3,16.3c0,5.9-1.1,11.4-3.4,16.5c-2.3,5.1-5.3,9.5-9.1,13.3
		c-3.8,3.8-8.2,6.8-13.3,8.9C796,579.1,790.6,580.1,784.9,580.1z M784.9,518.8h-29v38.6h29c2.6,0,5.1-0.5,7.4-1.5
		c2.3-1,4.3-2.4,6.1-4.1c1.8-1.8,3.2-3.8,4.2-6.2c1-2.3,1.6-4.8,1.6-7.4c0-2.6-0.5-5.1-1.6-7.4c-1-2.3-2.4-4.4-4.2-6.2
		s-3.8-3.2-6.1-4.2C790,519.3,787.5,518.8,784.9,518.8z"/>
	<path class="st1" d="M952.2,580.3c-20.1,0-37.3-7.1-51.5-21.3c-14.2-14.2-21.3-31.3-21.3-51.5c0-20,7.1-37.1,21.3-51.3
		c14.3-14.3,31.4-21.4,51.5-21.4c9.9,0,19.3,1.9,28.1,5.8c8.8,3.8,16.5,9.1,23.2,15.7s11.9,14.4,15.8,23.2
		c3.9,8.8,5.8,18.2,5.8,28.1c0,1.9-0.1,3.8-0.3,5.8c-0.2,2-0.5,4-0.8,6.1H904.5c1.4,5.3,3.5,10.2,6.4,14.8
		c2.9,4.5,6.5,8.4,10.7,11.8c4.2,3.3,8.9,6,14.1,7.9c5.2,1.9,10.7,2.8,16.5,2.8c4.6,0,9-0.6,13.3-1.9c4.3-1.3,8.3-3,12-5.3
		c3.7-2.3,7.1-4.9,10.1-8.1c3-3.1,5.6-6.5,7.7-10.2h25.9c-2.4,7-5.9,13.6-10.4,19.6c-4.5,6-9.8,11.2-15.8,15.6
		c-6,4.4-12.6,7.8-19.9,10.2C967.7,579.1,960.1,580.3,952.2,580.3z M904.5,495.8h95.3c-1.4-5.2-3.5-10.1-6.6-14.7
		c-3-4.6-6.6-8.5-10.8-11.8c-4.2-3.3-8.9-6-14-7.9c-5.1-1.9-10.6-2.8-16.2-2.8s-11.1,0.9-16.3,2.8c-5.2,1.9-9.9,4.5-14.1,7.8
		c-4.2,3.3-7.8,7.2-10.8,11.8C908,485.5,905.9,490.5,904.5,495.8z"/>
	<path class="st1" d="M1169.2,580.3c-19,0-35.3-6.3-49-19v72.2h-23.7V434.8h23.7v19c13.7-12.6,30.1-19,49-19
		c9.9,0,19.3,1.9,28.1,5.8c8.8,3.8,16.5,9.1,23.2,15.7s11.9,14.4,15.8,23.2c3.9,8.8,5.8,18.2,5.8,28.1c0,10-1.9,19.4-5.8,28.2
		c-3.8,8.8-9.1,16.5-15.7,23.1c-6.6,6.6-14.4,11.8-23.2,15.6C1188.5,578.4,1179.1,580.3,1169.2,580.3z M1169.2,556.7
		c6.7,0,13-1.3,19-3.9c6-2.6,11.2-6.1,15.6-10.6c4.5-4.5,8-9.7,10.6-15.6c2.6-6,3.9-12.3,3.9-19.1c0-6.7-1.3-13-3.9-19
		c-2.6-6-6.2-11.2-10.6-15.6c-4.5-4.5-9.7-8-15.6-10.6c-6-2.6-12.3-3.9-19-3.9c-6.8,0-13.1,1.3-19,3.9c-5.9,2.6-11.1,6.1-15.6,10.6
		c-4.5,4.5-8,9.7-10.6,15.6c-2.6,6-3.9,12.3-3.9,19c0,6.8,1.3,13.1,3.9,19.1s6.1,11.2,10.6,15.6c4.5,4.5,9.7,8,15.6,10.6
		C1156.1,555.4,1162.4,556.7,1169.2,556.7z"/>
	<path class="st1" d="M1368.5,580.3c-20.1,0-37.3-7.1-51.5-21.3c-14.2-14.2-21.3-31.3-21.3-51.5c0-20,7.1-37.1,21.3-51.3
		c14.3-14.3,31.4-21.4,51.5-21.4c18.8,0,35.2,6.3,49.2,19v-19h23.7v145.4h-23.7v-19C1403.6,574,1387.2,580.3,1368.5,580.3z
		 M1368.5,556.7c6.7,0,13-1.3,19-3.9c6-2.6,11.2-6.1,15.6-10.6c4.5-4.5,8-9.7,10.6-15.6c2.6-6,3.9-12.3,3.9-19.1
		c0-6.7-1.3-13-3.9-19c-2.6-6-6.2-11.2-10.6-15.6c-4.5-4.5-9.7-8-15.6-10.6c-6-2.6-12.3-3.9-19-3.9c-6.8,0-13.1,1.3-19,3.9
		c-5.9,2.6-11.1,6.1-15.6,10.6c-4.5,4.5-8,9.7-10.6,15.6c-2.6,6-3.9,12.3-3.9,19c0,6.8,1.3,13.1,3.9,19.1s6.1,11.2,10.6,15.6
		c4.5,4.5,9.7,8,15.6,10.6C1355.3,555.4,1361.7,556.7,1368.5,556.7z"/>
</g>
<linearGradient id="SVGID_1_" gradientUnits="userSpaceOnUse" x1="769.7474" y1="675.332" x2="914.4805" y2="675.332">
	<stop  offset="0" style="stop-color:#96B7DA"/>
	<stop  offset="0.5" style="stop-color:#7AA7D1"/>
	<stop  offset="0.5615" style="stop-color:#6EA2CE"/>
	<stop  offset="0.7412" style="stop-color:#4F95C7"/>
	<stop  offset="0.8937" style="stop-color:#3C8EC3"/>
	<stop  offset="1" style="stop-color:#358BC1"/>
</linearGradient>
<path class="st2" d="M770.3,703.4c0,0-6.1-37.8,23.7-53.8c29.8-16,59.8,15.3,59.8,15.3s26.9,37.9,59.1,14c0.8-0.6,1.9,0.3,1.5,1.2
	c-5,11.6-25,46.5-71.7,8.2C787.6,642.9,770.3,703.4,770.3,703.4z"/>
<g>
	<path class="st3" d="M226.4,705.7l27.8-36.1l-0.1,4.4l-26.5-34.1h10l21.7,28.2l-3.8-0.1l21.7-28.1h9.8l-26.7,34.5l0.1-4.8
		l28.1,36.1h-10.2l-23-30.1l3.5,0.5l-22.6,29.6H226.4z"/>
	<path class="st3" d="M390.6,706.3c-6.4,0-12.2-1.4-17.2-4.3c-5-2.9-9-6.9-11.9-12c-2.9-5.1-4.4-10.9-4.4-17.3
		c0-6.6,1.5-12.4,4.4-17.4c2.9-5,6.9-8.9,11.9-11.8c5-2.8,10.7-4.3,17.2-4.3c6.5,0,12.3,1.4,17.4,4.3c5.1,2.9,9,6.8,11.9,11.8
		c2.9,5,4.3,10.8,4.3,17.4c0,6.5-1.4,12.3-4.3,17.4c-2.9,5.1-6.9,9-12,11.9C402.9,704.9,397.1,706.3,390.6,706.3z M390.6,698.4
		c4.8,0,9-1.1,12.7-3.2c3.7-2.1,6.6-5.1,8.7-9s3.2-8.4,3.2-13.5c0-5.2-1.1-9.7-3.2-13.5c-2.1-3.8-5-6.8-8.7-9
		c-3.7-2.1-7.9-3.2-12.5-3.2c-4.7,0-8.9,1.1-12.5,3.2c-3.7,2.1-6.6,5.1-8.8,9c-2.2,3.8-3.3,8.4-3.3,13.5c0,5.1,1.1,9.6,3.3,13.5
		c2.2,3.9,5.1,6.9,8.7,9S386,698.4,390.6,698.4z"/>
	<path class="st3" d="M493.6,705.6l0.6-7.7c0.6,0.1,1.1,0.2,1.7,0.3c0.5,0.1,1,0.2,1.4,0.2c2.7,0,4.8-1,6.5-3c1.6-2,2.9-4.7,3.7-8
		c0.8-3.3,1.4-7.1,1.8-11.4c0.3-4.2,0.6-8.5,0.9-12.7l1.1-23.5h48.3v65.9h-8.9V645l2.3,2.6h-35.9l2.1-2.8l-1,19.1
		c-0.3,5.7-0.7,11.1-1.3,16.3c-0.6,5.2-1.6,9.7-2.9,13.7c-1.3,3.9-3.1,7-5.3,9.2c-2.3,2.2-5.1,3.3-8.7,3.3c-1,0-2-0.1-3.1-0.3
		C495.9,706,494.8,705.8,493.6,705.6z"/>
	<path class="st3" d="M635.6,705.6l0.6-7.7c0.6,0.1,1.1,0.2,1.7,0.3c0.5,0.1,1,0.2,1.4,0.2c2.7,0,4.8-1,6.5-3c1.6-2,2.9-4.7,3.7-8
		c0.8-3.3,1.4-7.1,1.8-11.4c0.3-4.2,0.6-8.5,0.9-12.7l1.1-23.5h48.3v65.9h-8.9V645l2.3,2.6h-35.9l2.1-2.8l-1,19.1
		c-0.3,5.7-0.7,11.1-1.3,16.3c-0.6,5.2-1.6,9.7-2.9,13.7c-1.3,3.9-3.1,7-5.3,9.2c-2.3,2.2-5.1,3.3-8.7,3.3c-1,0-2-0.1-3.1-0.3
		C637.9,706,636.8,705.8,635.6,705.6z"/>
</g>
<rect y="1080" class="st1" width="1632" height="1080"/>
<g>
	<g>
		<path class="st0" d="M225,1660.3c-19,0-35.3-6.3-49-19v72.2h-23.7v-198.6H176v19c13.7-12.6,30.1-19,49-19c9.9,0,19.3,1.9,28.1,5.8
			c8.8,3.8,16.5,9.1,23.2,15.7s11.9,14.4,15.8,23.2c3.9,8.8,5.8,18.2,5.8,28.1c0,10-1.9,19.4-5.8,28.2c-3.8,8.8-9.1,16.5-15.7,23.1
			c-6.6,6.6-14.4,11.8-23.2,15.6C244.3,1658.4,234.9,1660.3,225,1660.3z M225,1636.7c6.7,0,13-1.3,19-3.9c6-2.6,11.2-6.1,15.6-10.6
			c4.5-4.5,8-9.7,10.6-15.6c2.6-6,3.9-12.3,3.9-19.1c0-6.7-1.3-13-3.9-19c-2.6-6-6.2-11.2-10.6-15.6c-4.5-4.5-9.7-8-15.6-10.6
			c-6-2.6-12.3-3.9-19-3.9c-6.8,0-13.1,1.3-19,3.9c-5.9,2.6-11.1,6.1-15.6,10.6c-4.5,4.5-8,9.7-10.6,15.6c-2.6,6-3.9,12.3-3.9,19
			c0,6.8,1.3,13.1,3.9,19.1s6.1,11.2,10.6,15.6c4.5,4.5,9.7,8,15.6,10.6C211.9,1635.4,218.2,1636.7,225,1636.7z"/>
		<path class="st0" d="M455.7,1556.8l-71.6,103.4h-23.7v-145.6h23.7v103.9l71.6-103.6h23.7v144.3h-23.7V1556.8z"/>
		<path class="st0" d="M614.2,1660.1h-29h-23.7v-145.6h52.7c5.7,0,11.1,1.1,16.2,3.3c5.1,2.2,9.6,5.2,13.4,9.1
			c3.8,3.8,6.9,8.3,9.1,13.4c2.2,5.1,3.3,10.5,3.3,16.3c0,11.7-4.1,21.7-12.3,29.8l-0.9,0.9l0.9,0.9c8.2,8.2,12.3,18.1,12.3,29.8
			c0,5.9-1.1,11.4-3.4,16.5c-2.3,5.1-5.3,9.5-9.1,13.3c-3.8,3.8-8.2,6.8-13.3,8.9C625.3,1659.1,619.9,1660.1,614.2,1660.1z
			 M614.2,1537.3h-29v38.7h29c2.6,0,5.1-0.5,7.4-1.5c2.3-1,4.4-2.4,6.2-4.1c1.8-1.8,3.1-3.8,4.1-6.2c1-2.3,1.5-4.9,1.5-7.6
			c0-2.6-0.5-5.1-1.6-7.4c-1-2.3-2.4-4.4-4.2-6.2c-1.8-1.8-3.8-3.2-6.1-4.2C619.3,1537.8,616.8,1537.3,614.2,1537.3z M614.2,1598.8
			h-29v38.6h29c2.6,0,5.1-0.5,7.4-1.5c2.3-1,4.3-2.4,6.1-4.1s3.2-3.8,4.2-6.2c1-2.3,1.6-4.8,1.6-7.4c0-2.6-0.5-5.1-1.6-7.4
			c-1-2.3-2.4-4.4-4.2-6.2s-3.8-3.2-6.1-4.2C619.3,1599.3,616.8,1598.8,614.2,1598.8z"/>
		<path class="st0" d="M784.9,1660.1h-29h-23.7v-145.3h23.7v61.2h29c5.7,0,11.1,1.1,16.2,3.3c5.1,2.2,9.6,5.2,13.4,9.1
			c3.8,3.8,6.9,8.3,9.1,13.4c2.2,5.1,3.3,10.5,3.3,16.3c0,5.9-1.1,11.4-3.4,16.5c-2.3,5.1-5.3,9.5-9.1,13.3
			c-3.8,3.8-8.2,6.8-13.3,8.9C796,1659.1,790.6,1660.1,784.9,1660.1z M784.9,1598.8h-29v38.6h29c2.6,0,5.1-0.5,7.4-1.5
			c2.3-1,4.3-2.4,6.1-4.1s3.2-3.8,4.2-6.2c1-2.3,1.6-4.8,1.6-7.4c0-2.6-0.5-5.1-1.6-7.4c-1-2.3-2.4-4.4-4.2-6.2s-3.8-3.2-6.1-4.2
			C790,1599.3,787.5,1598.8,784.9,1598.8z"/>
		<path class="st0" d="M952.2,1660.3c-20.1,0-37.3-7.1-51.5-21.3c-14.2-14.2-21.3-31.3-21.3-51.5c0-20,7.1-37.1,21.3-51.3
			c14.3-14.3,31.4-21.4,51.5-21.4c9.9,0,19.3,1.9,28.1,5.8c8.8,3.8,16.5,9.1,23.2,15.7s11.9,14.4,15.8,23.2
			c3.9,8.8,5.8,18.2,5.8,28.1c0,1.9-0.1,3.8-0.3,5.8c-0.2,2-0.5,4-0.8,6.1H904.5c1.4,5.3,3.5,10.2,6.4,14.8
			c2.9,4.5,6.5,8.4,10.7,11.8c4.2,3.3,8.9,6,14.1,7.9c5.2,1.9,10.7,2.8,16.5,2.8c4.6,0,9-0.6,13.3-1.9c4.3-1.3,8.3-3,12-5.3
			c3.7-2.3,7.1-4.9,10.1-8.1c3-3.1,5.6-6.5,7.7-10.2h25.9c-2.4,7-5.9,13.6-10.4,19.6c-4.5,6-9.8,11.2-15.8,15.6
			c-6,4.4-12.6,7.8-19.9,10.2C967.7,1659.1,960.1,1660.3,952.2,1660.3z M904.5,1575.8h95.3c-1.4-5.2-3.5-10.1-6.6-14.7
			c-3-4.6-6.6-8.5-10.8-11.8c-4.2-3.3-8.9-6-14-7.9c-5.1-1.9-10.6-2.8-16.2-2.8s-11.1,0.9-16.3,2.8c-5.2,1.9-9.9,4.5-14.1,7.8
			c-4.2,3.3-7.8,7.2-10.8,11.8C908,1565.5,905.9,1570.5,904.5,1575.8z"/>
		<path class="st0" d="M1169.2,1660.3c-19,0-35.3-6.3-49-19v72.2h-23.7v-198.6h23.7v19c13.7-12.6,30.1-19,49-19
			c9.9,0,19.3,1.9,28.1,5.8c8.8,3.8,16.5,9.1,23.2,15.7s11.9,14.4,15.8,23.2c3.9,8.8,5.8,18.2,5.8,28.1c0,10-1.9,19.4-5.8,28.2
			c-3.8,8.8-9.1,16.5-15.7,23.1c-6.6,6.6-14.4,11.8-23.2,15.6C1188.5,1658.4,1179.1,1660.3,1169.2,1660.3z M1169.2,1636.7
			c6.7,0,13-1.3,19-3.9c6-2.6,11.2-6.1,15.6-10.6c4.5-4.5,8-9.7,10.6-15.6c2.6-6,3.9-12.3,3.9-19.1c0-6.7-1.3-13-3.9-19
			c-2.6-6-6.2-11.2-10.6-15.6c-4.5-4.5-9.7-8-15.6-10.6c-6-2.6-12.3-3.9-19-3.9c-6.8,0-13.1,1.3-19,3.9c-5.9,2.6-11.1,6.1-15.6,10.6
			c-4.5,4.5-8,9.7-10.6,15.6c-2.6,6-3.9,12.3-3.9,19c0,6.8,1.3,13.1,3.9,19.1s6.1,11.2,10.6,15.6c4.5,4.5,9.7,8,15.6,10.6
			C1156.1,1635.4,1162.4,1636.7,1169.2,1636.7z"/>
		<path class="st0" d="M1368.5,1660.3c-20.1,0-37.3-7.1-51.5-21.3c-14.2-14.2-21.3-31.3-21.3-51.5c0-20,7.1-37.1,21.3-51.3
			c14.3-14.3,31.4-21.4,51.5-21.4c18.8,0,35.2,6.3,49.2,19v-19h23.7v145.4h-23.7v-19C1403.6,1654,1387.2,1660.3,1368.5,1660.3z
			 M1368.5,1636.7c6.7,0,13-1.3,19-3.9c6-2.6,11.2-6.1,15.6-10.6c4.5-4.5,8-9.7,10.6-15.6c2.6-6,3.9-12.3,3.9-19.1
			c0-6.7-1.3-13-3.9-19c-2.6-6-6.2-11.2-10.6-15.6s-9.7-8-15.6-10.6c-6-2.6-12.3-3.9-19-3.9c-6.8,0-13.1,1.3-19,3.9
			c-5.9,2.6-11.1,6.1-15.6,10.6s-8,9.7-10.6,15.6c-2.6,6-3.9,12.3-3.9,19c0,6.8,1.3,13.1,3.9,19.1s6.1,11.2,10.6,15.6
			c4.5,4.5,9.7,8,15.6,10.6C1355.3,1635.4,1361.7,1636.7,1368.5,1636.7z"/>
	</g>
	
		<linearGradient id="SVGID_00000023264357229182820420000004377756909466184586_" gradientUnits="userSpaceOnUse" x1="769.7474" y1="1755.3318" x2="914.4805" y2="1755.3318">
		<stop  offset="0" style="stop-color:#96B7DA"/>
		<stop  offset="0.5" style="stop-color:#7AA7D1"/>
		<stop  offset="0.5615" style="stop-color:#6EA2CE"/>
		<stop  offset="0.7412" style="stop-color:#4F95C7"/>
		<stop  offset="0.8937" style="stop-color:#3C8EC3"/>
		<stop  offset="1" style="stop-color:#358BC1"/>
	</linearGradient>
	<path style="fill:url(#SVGID_00000023264357229182820420000004377756909466184586_);" d="M770.3,1783.4c0,0-6.1-37.8,23.7-53.8
		c29.8-16,59.8,15.3,59.8,15.3s26.9,37.9,59.1,14c0.8-0.6,1.9,0.3,1.5,1.2c-5,11.6-25,46.5-71.7,8.2
		C787.6,1722.9,770.3,1783.4,770.3,1783.4z"/>
	<g>
		<path class="st0" d="M226.4,1785.7l27.8-36.1l-0.1,4.4l-26.5-34.1h10l21.7,28.2l-3.8-0.1l21.7-28.1h9.8l-26.7,34.5l0.1-4.8
			l28.1,36.1h-10.2l-23-30.1l3.5,0.5l-22.6,29.6H226.4z"/>
		<path class="st0" d="M390.6,1786.3c-6.4,0-12.2-1.4-17.2-4.3c-5-2.9-9-6.9-11.9-12c-2.9-5.1-4.4-10.9-4.4-17.3
			c0-6.6,1.5-12.4,4.4-17.4c2.9-5,6.9-8.9,11.9-11.8c5-2.8,10.7-4.3,17.2-4.3c6.5,0,12.3,1.4,17.4,4.3c5.1,2.9,9,6.8,11.9,11.8
			c2.9,5,4.3,10.8,4.3,17.4c0,6.5-1.4,12.3-4.3,17.4c-2.9,5.1-6.9,9-12,11.9C402.9,1784.9,397.1,1786.3,390.6,1786.3z M390.6,1778.4
			c4.8,0,9-1.1,12.7-3.2c3.7-2.1,6.6-5.1,8.7-9c2.1-3.9,3.2-8.4,3.2-13.5c0-5.2-1.1-9.7-3.2-13.5c-2.1-3.8-5-6.8-8.7-9
			c-3.7-2.1-7.9-3.2-12.5-3.2c-4.7,0-8.9,1.1-12.5,3.2c-3.7,2.1-6.6,5.1-8.8,9c-2.2,3.8-3.3,8.4-3.3,13.5c0,5.1,1.1,9.6,3.3,13.5
			c2.2,3.9,5.1,6.9,8.7,9S386,1778.4,390.6,1778.4z"/>
		<path class="st0" d="M493.6,1785.6l0.6-7.7c0.6,0.1,1.1,0.2,1.7,0.3c0.5,0.1,1,0.2,1.4,0.2c2.7,0,4.8-1,6.5-3c1.6-2,2.9-4.7,3.7-8
			c0.8-3.3,1.4-7.1,1.8-11.4c0.3-4.2,0.6-8.5,0.9-12.7l1.1-23.5h48.3v65.9h-8.9V1725l2.3,2.6h-35.9l2.1-2.8l-1,19.1
			c-0.3,5.7-0.7,11.1-1.3,16.3c-0.6,5.2-1.6,9.7-2.9,13.7c-1.3,3.9-3.1,7-5.3,9.2c-2.3,2.2-5.1,3.3-8.7,3.3c-1,0-2-0.1-3.1-0.3
			C495.9,1786,494.8,1785.8,493.6,1785.6z"/>
		<path class="st0" d="M635.6,1785.6l0.6-7.7c0.6,0.1,1.1,0.2,1.7,0.3c0.5,0.1,1,0.2,1.4,0.2c2.7,0,4.8-1,6.5-3c1.6-2,2.9-4.7,3.7-8
			c0.8-3.3,1.4-7.1,1.8-11.4c0.3-4.2,0.6-8.5,0.9-12.7l1.1-23.5h48.3v65.9h-8.9V1725l2.3,2.6h-35.9l2.1-2.8l-1,19.1
			c-0.3,5.7-0.7,11.1-1.3,16.3c-0.6,5.2-1.6,9.7-2.9,13.7c-1.3,3.9-3.1,7-5.3,9.2c-2.3,2.2-5.1,3.3-8.7,3.3c-1,0-2-0.1-3.1-0.3
			C637.9,1786,636.8,1785.8,635.6,1785.6z"/>
	</g>
</g>
<g>
	<path d="M1779.9,725.4h4.9v43.5h21.7v-43.5h4.9v43.5h21.7v-43.5h4.9v48.2h-58.2V725.4z"/>
	<path d="M1847.5,789.6v-52.2h4.9v6.1c1.2-2.2,2.8-3.9,4.9-5.2s4.6-1.9,7.7-1.9c2.6,0,4.9,0.5,6.9,1.4c2,0.9,3.8,2.2,5.2,3.9
		c1.4,1.7,2.5,3.7,3.2,6c0.7,2.3,1.1,4.9,1.1,7.7c0,2.8-0.4,5.4-1.1,7.8c-0.8,2.4-1.9,4.4-3.3,6c-1.4,1.7-3.2,3-5.2,3.9
		s-4.3,1.4-6.9,1.4c-3.1,0-5.6-0.6-7.7-1.9c-2.1-1.2-3.7-3-4.9-5.2v22.1H1847.5z M1864.2,769.8c2,0,3.8-0.4,5.3-1.1
		c1.5-0.7,2.7-1.7,3.7-2.9c1-1.3,1.7-2.8,2.2-4.5c0.5-1.8,0.7-3.7,0.7-5.9c0-2.2-0.2-4.2-0.7-5.9c-0.5-1.8-1.2-3.3-2.2-4.5
		c-1-1.2-2.2-2.2-3.7-2.9c-1.5-0.7-3.2-1-5.2-1c-2,0-3.8,0.4-5.3,1.1c-1.5,0.7-2.7,1.7-3.7,2.9c-1,1.3-1.7,2.8-2.2,4.5
		c-0.5,1.8-0.7,3.7-0.7,5.8c0,2.2,0.3,4.1,0.8,5.9c0.5,1.8,1.2,3.3,2.2,4.5c1,1.3,2.2,2.2,3.7,2.9
		C1860.6,769.5,1862.3,769.8,1864.2,769.8z"/>
	<path d="M1917.4,737.4v36.1h-4.9v-28.3l-18.9,28.3h-4.9v-36.1h4.9v28.3l18.9-28.3H1917.4z"/>
	<path d="M1944.6,774.1c-2.7,0-5.3-0.5-7.7-1.2c-2.4-0.8-4.5-1.9-6.3-3.5c-1.8-1.5-3.2-3.5-4.3-5.8c-1-2.3-1.6-5-1.6-8.2
		c0-3.1,0.5-5.8,1.6-8.2c1-2.3,2.5-4.3,4.3-5.8c1.8-1.5,3.9-2.7,6.3-3.5c2.4-0.8,5-1.2,7.7-1.2V726h4.9v10.8c2.7,0,5.3,0.5,7.7,1.2
		c2.4,0.8,4.5,1.9,6.3,3.5c1.8,1.5,3.2,3.5,4.3,5.8c1,2.3,1.6,5.1,1.6,8.2c0,3.1-0.5,5.8-1.6,8.2c-1,2.3-2.5,4.2-4.3,5.8
		c-1.8,1.5-3.9,2.7-6.3,3.5c-2.4,0.8-5,1.2-7.7,1.2v14.5h-4.9V774.1z M1944.6,741.5c-2.2,0-4.3,0.4-6.1,1c-1.8,0.6-3.4,1.6-4.6,2.8
		c-1.3,1.2-2.3,2.7-3,4.4c-0.7,1.7-1,3.7-1,5.9c0,2.2,0.3,4.1,1,5.9c0.7,1.7,1.7,3.2,3,4.4c1.3,1.2,2.8,2.1,4.6,2.7
		c1.8,0.6,3.8,1,6.1,1V741.5z M1949.5,769.5c2.3,0,4.3-0.4,6.1-1c1.8-0.6,3.4-1.5,4.7-2.7c1.3-1.2,2.3-2.6,3-4.3
		c0.7-1.7,1-3.7,1-5.9s-0.3-4.2-1-5.9c-0.7-1.7-1.7-3.2-3-4.4c-1.3-1.2-2.8-2.1-4.7-2.8c-1.8-0.6-3.8-1-6.1-1V769.5z"/>
	<path d="M1985.5,773.5v-31.4h-12.7v-4.7h30.3v4.7h-12.7v31.4H1985.5z"/>
	<path d="M2025.5,773.5h-16v-36.1h4.9v13.7h11.1c2.1,0,3.9,0.3,5.4,0.8c1.6,0.6,2.8,1.3,3.9,2.3c1,1,1.8,2.2,2.4,3.5
		c0.5,1.4,0.8,2.9,0.8,4.5c0,1.6-0.3,3.1-0.8,4.5c-0.5,1.4-1.3,2.6-2.4,3.5c-1,1-2.3,1.8-3.9,2.3
		C2029.3,773.3,2027.5,773.5,2025.5,773.5z M2025,769.3c1.4,0,2.5-0.2,3.6-0.5c1-0.3,1.9-0.8,2.5-1.4c0.7-0.6,1.2-1.3,1.5-2.2
		c0.3-0.8,0.5-1.8,0.5-2.8c0-1-0.2-1.9-0.5-2.8s-0.8-1.6-1.5-2.2c-0.7-0.6-1.5-1.1-2.5-1.4c-1-0.3-2.2-0.5-3.6-0.5h-10.6v13.8H2025z
		 M2042.2,773.5v-36.1h4.9v36.1H2042.2z"/>
	<path d="M2056.1,778.1c0.1,0,0.2,0,0.3,0c0.6,0,1.1-0.1,1.5-0.4s0.7-0.7,0.8-1.2c0.1-0.5,0.2-1.1,0.2-1.8c0-0.1,0-0.2,0-0.3
		c0-0.2,0-0.3,0-0.4s0-0.3,0-0.4h-3v-7.1h5.7v8.4c0,1.4-0.2,2.5-0.7,3.4c-0.5,0.9-1.1,1.5-1.8,1.9c-0.7,0.3-1.4,0.5-2,0.5
		c-0.4,0-0.8,0-1.2-0.1L2056.1,778.1z"/>
	<path d="M2116.4,737.4v36.1h-4.9v-28.3l-18.9,28.3h-4.9v-36.1h4.9v28.3l18.9-28.3H2116.4z"/>
	<path d="M2140.7,774.5c-2.7,0-5-0.5-7.1-1.4c-2.1-0.9-3.9-2.2-5.3-3.8c-1.5-1.7-2.6-3.7-3.4-6c-0.8-2.4-1.2-5-1.2-7.8
		c0-2.9,0.4-5.6,1.2-7.9s1.9-4.3,3.4-6c1.5-1.7,3.3-2.9,5.4-3.8c2.1-0.9,4.5-1.3,7.1-1.3c1.8,0,3.6,0.2,5.2,0.7
		c1.6,0.5,3.1,1.1,4.4,2c1.3,0.9,2.4,1.9,3.4,3.1s1.7,2.6,2.2,4.2l-4.8,1.5c-0.4-1.1-1-2-1.7-2.9s-1.5-1.6-2.4-2.1
		c-0.9-0.6-1.9-1-2.9-1.3c-1.1-0.3-2.2-0.5-3.4-0.5c-1.9,0-3.6,0.3-5.1,1c-1.5,0.7-2.7,1.6-3.7,2.9s-1.7,2.7-2.3,4.5
		c-0.5,1.8-0.8,3.8-0.8,6c0,2.2,0.3,4.1,0.8,5.9c0.5,1.8,1.2,3.3,2.2,4.5c1,1.3,2.2,2.2,3.7,2.9c1.5,0.7,3.2,1,5.1,1
		c2.5,0,4.6-0.6,6.3-1.7c1.7-1.1,3-2.8,3.9-4.9l5,1.5c-1.4,3.2-3.3,5.7-5.9,7.4S2144.3,774.5,2140.7,774.5z"/>
	<path d="M2162.7,773.5v-36.1h28.4v36.1h-4.9v-31.4h-18.6v31.4H2162.7z"/>
	<path d="M2215.6,774.5c-2.7,0-5.1-0.5-7.2-1.4c-2.1-0.9-3.9-2.2-5.4-3.9s-2.6-3.7-3.4-6s-1.2-4.9-1.2-7.7c0-2.8,0.4-5.4,1.2-7.8
		c0.8-2.3,1.9-4.3,3.4-6c1.5-1.7,3.3-3,5.4-3.9c2.1-0.9,4.5-1.4,7.1-1.4c2.7,0,5.1,0.5,7.2,1.4c2.1,0.9,3.9,2.2,5.4,3.9
		c1.5,1.7,2.6,3.7,3.4,6c0.8,2.3,1.2,4.9,1.2,7.7c0,2.8-0.4,5.4-1.2,7.8c-0.8,2.4-1.9,4.4-3.4,6c-1.5,1.7-3.3,3-5.4,3.9
		S2218.2,774.5,2215.6,774.5z M2215.6,769.8c2,0,3.7-0.3,5.2-1c1.5-0.7,2.7-1.7,3.7-2.9c1-1.2,1.7-2.8,2.2-4.5s0.8-3.7,0.8-5.9
		c0-2.2-0.3-4.2-0.8-6c-0.5-1.8-1.3-3.3-2.3-4.5s-2.2-2.2-3.7-2.9c-1.5-0.7-3.2-1-5.2-1c-2,0-3.7,0.3-5.2,1
		c-1.5,0.7-2.7,1.7-3.7,2.9c-1,1.3-1.7,2.8-2.2,4.5c-0.5,1.8-0.7,3.7-0.7,5.9c0,2.2,0.3,4.2,0.8,6c0.5,1.8,1.3,3.3,2.3,4.5
		s2.2,2.2,3.7,2.9C2211.9,769.5,2213.6,769.8,2215.6,769.8z"/>
	<path d="M2236.7,769.7c0.6,0.2,1.1,0.3,1.5,0.3c0.9,0,1.7-0.4,2.4-1.1c0.6-0.7,1.1-1.7,1.5-3.1c0.4-1.3,0.7-3,0.8-4.9
		c0.2-1.9,0.2-4.1,0.2-6.5v-17h25.9v36.1h-4.9v-31.4h-16.3v13.4c0,6.6-0.7,11.4-2,14.5c-1.3,3.1-3.4,4.6-6.1,4.6
		c-0.9,0-1.9-0.2-3-0.5V769.7z"/>
	<path d="M2294.4,773.5h-16v-36.1h4.9v13.7h11.1c2.1,0,3.9,0.3,5.4,0.8c1.6,0.6,2.8,1.3,3.9,2.3c1,1,1.8,2.2,2.3,3.5
		c0.5,1.4,0.8,2.9,0.8,4.5c0,1.6-0.3,3.1-0.8,4.5c-0.5,1.4-1.3,2.6-2.3,3.5s-2.3,1.8-3.9,2.3
		C2298.3,773.3,2296.5,773.5,2294.4,773.5z M2293.9,769.3c1.4,0,2.6-0.2,3.6-0.5c1-0.3,1.8-0.8,2.5-1.4c0.7-0.6,1.2-1.3,1.5-2.2
		c0.3-0.8,0.5-1.8,0.5-2.8c0-1-0.2-1.9-0.5-2.8c-0.3-0.8-0.8-1.6-1.5-2.2c-0.7-0.6-1.5-1.1-2.5-1.4s-2.2-0.5-3.6-0.5h-10.6v13.8
		H2293.9z"/>
	<path d="M2326.7,774.5c-2,0-3.9-0.2-5.6-0.7c-1.7-0.5-3.3-1.2-4.6-2.1c-1.3-1-2.4-2.2-3.3-3.7c-0.9-1.5-1.5-3.3-1.9-5.4l4.8-0.9
		c0.4,2.7,1.5,4.7,3.2,6.1c1.7,1.4,4.2,2.1,7.3,2.1c3.2,0,5.7-0.6,7.4-1.8c1.7-1.2,2.5-2.8,2.5-4.9c0-1.1-0.2-2.1-0.6-2.9
		c-0.4-0.8-1-1.4-1.7-1.9c-0.7-0.5-1.6-0.8-2.5-1.1c-1-0.2-2-0.3-3.1-0.3h-5.7v-4.2h5.7c2.2,0,3.9-0.5,5.1-1.4
		c1.2-0.9,1.9-2.2,1.9-4c0-2.1-0.7-3.8-2.2-4.9c-1.4-1.2-3.7-1.8-6.7-1.8c-1.5,0-2.9,0.2-4,0.5c-1.1,0.3-2.1,0.8-2.9,1.4
		c-0.8,0.6-1.4,1.4-1.9,2.2c-0.5,0.9-0.9,1.9-1.2,2.9l-4.8-0.9c0.5-2,1.3-3.7,2.2-5.1c1-1.4,2.1-2.5,3.4-3.3
		c1.3-0.8,2.7-1.4,4.3-1.8c1.6-0.4,3.2-0.5,4.9-0.5c2.2,0,4.1,0.3,5.8,0.8c1.7,0.5,3.1,1.2,4.3,2.2c1.2,0.9,2,2.1,2.7,3.4
		c0.6,1.3,0.9,2.9,0.9,4.5c0,1.9-0.4,3.5-1.3,4.7c-0.9,1.2-2.1,2.2-3.6,2.8c0.8,0.2,1.6,0.6,2.3,1.1c0.7,0.5,1.3,1.1,1.9,1.9
		c0.5,0.7,1,1.6,1.3,2.5c0.3,0.9,0.5,1.9,0.5,3c0,1.7-0.3,3.2-1,4.5c-0.6,1.4-1.6,2.6-2.8,3.5c-1.2,1-2.8,1.8-4.6,2.3
		S2329.1,774.5,2326.7,774.5z"/>
	<path d="M2353.9,789.6l6-16.1l-14.7-36.1h5.2l11.8,29.7l11-29.7h5l-19.4,52.2H2353.9z"/>
	<path d="M2399.3,769.9c2.7,0,5-0.6,6.8-1.8c1.8-1.2,3.2-2.9,4.3-5.2l4.7,1.7c-1.5,3.2-3.5,5.6-6.2,7.3s-5.9,2.6-9.5,2.6
		c-2.6,0-5-0.5-7.1-1.4c-2.1-0.9-3.9-2.2-5.5-3.8c-1.5-1.7-2.7-3.7-3.5-6c-0.8-2.4-1.2-5-1.2-7.9c0-2.9,0.4-5.6,1.2-7.9
		c0.8-2.4,2-4.4,3.4-6c1.5-1.7,3.3-2.9,5.4-3.8c2.1-0.9,4.4-1.3,7.1-1.3c2.7,0,5.1,0.5,7.2,1.4c2.1,0.9,3.9,2.3,5.3,4
		c1.4,1.8,2.5,3.9,3.2,6.4c0.7,2.5,1,5.4,0.9,8.6h-28.5c0.1,2.1,0.5,3.9,1.1,5.5c0.6,1.6,1.4,3,2.5,4.1c1,1.1,2.3,2,3.7,2.6
		C2395.9,769.6,2397.5,769.9,2399.3,769.9z M2410.5,752.7c-0.3-3.8-1.5-6.7-3.4-8.7c-2-2-4.6-3-8-3c-3.4,0-6.1,1-8.1,3.1
		c-2,2.1-3.2,5-3.6,8.7H2410.5z"/>
	<path d="M2422.1,773.5v-36.1h4.9l12.9,25.5l12.9-25.5h4.9v36.1h-4.9v-26.3l-10.7,21.3h-4.4l-10.7-21.3v26.3H2422.1z"/>
	<path d="M2483.1,773.5h-16v-36.1h4.9v13.7h11.1c2.1,0,3.9,0.3,5.4,0.8c1.6,0.6,2.8,1.3,3.9,2.3c1,1,1.8,2.2,2.4,3.5
		c0.5,1.4,0.8,2.9,0.8,4.5c0,1.6-0.3,3.1-0.8,4.5c-0.5,1.4-1.3,2.6-2.4,3.5c-1,1-2.3,1.8-3.9,2.3
		C2486.9,773.3,2485.1,773.5,2483.1,773.5z M2482.5,769.3c1.4,0,2.5-0.2,3.6-0.5c1-0.3,1.9-0.8,2.5-1.4c0.7-0.6,1.2-1.3,1.5-2.2
		c0.3-0.8,0.5-1.8,0.5-2.8c0-1-0.2-1.9-0.5-2.8s-0.8-1.6-1.5-2.2c-0.7-0.6-1.5-1.1-2.5-1.4c-1-0.3-2.2-0.5-3.6-0.5H2472v13.8H2482.5
		z M2499.8,773.5v-36.1h4.9v36.1H2499.8z"/>
	<path d="M2529.4,769.9c2.7,0,5-0.6,6.8-1.8c1.8-1.2,3.2-2.9,4.3-5.2l4.6,1.7c-1.4,3.2-3.5,5.6-6.2,7.3c-2.7,1.7-5.9,2.6-9.5,2.6
		c-2.6,0-5-0.5-7.1-1.4c-2.1-0.9-3.9-2.2-5.5-3.8c-1.5-1.7-2.7-3.7-3.5-6c-0.8-2.4-1.2-5-1.2-7.9c0-2.9,0.4-5.6,1.2-7.9
		c0.8-2.4,2-4.4,3.4-6c1.5-1.7,3.3-2.9,5.4-3.8c2.1-0.9,4.4-1.3,7.1-1.3c2.7,0,5.1,0.5,7.2,1.4c2.1,0.9,3.9,2.3,5.3,4
		c1.4,1.8,2.5,3.9,3.2,6.4c0.7,2.5,1,5.4,0.9,8.6h-28.5c0.1,2.1,0.5,3.9,1.1,5.5s1.4,3,2.5,4.1c1,1.1,2.3,2,3.7,2.6
		C2526,769.6,2527.6,769.9,2529.4,769.9z M2540.6,752.7c-0.3-3.8-1.4-6.7-3.4-8.7c-2-2-4.6-3-8-3c-3.4,0-6.1,1-8.1,3.1
		c-2,2.1-3.2,5-3.6,8.7H2540.6z"/>
	<path d="M2580.8,773.5h-14.3v-36.1h14c4.3,0,7.5,0.8,9.7,2.4s3.3,4,3.3,7.3c0,2-0.5,3.7-1.4,5c-0.9,1.3-2.2,2.2-3.7,2.8
		c0.8,0.2,1.6,0.6,2.4,1.1c0.7,0.5,1.4,1.1,1.9,1.9c0.5,0.8,1,1.6,1.3,2.6c0.3,1,0.5,2,0.5,3.1c0,3.3-1.2,5.8-3.5,7.4
		C2588.7,772.7,2585.3,773.5,2580.8,773.5z M2580.4,741.6h-9.2V753h10.6c1,0,2-0.1,2.8-0.3c0.8-0.2,1.6-0.6,2.2-1
		c0.6-0.4,1.1-1,1.4-1.7c0.3-0.7,0.5-1.5,0.5-2.4c0-1-0.2-1.9-0.5-2.7c-0.3-0.7-0.8-1.4-1.4-1.8c-0.6-0.5-1.5-0.8-2.5-1.1
		C2583.1,741.7,2581.9,741.6,2580.4,741.6z M2580.7,769.3c3,0,5.2-0.5,6.7-1.4c1.5-0.9,2.2-2.5,2.2-4.5c0-1.1-0.2-2.1-0.6-2.9
		c-0.4-0.8-0.9-1.4-1.6-1.9c-0.7-0.5-1.5-0.8-2.4-1.1c-0.9-0.2-1.9-0.3-2.9-0.3h-10.9v12.1H2580.7z"/>
	<path d="M2611.2,769.7c0.6,0.2,1.1,0.3,1.5,0.3c0.9,0,1.7-0.4,2.4-1.1c0.6-0.7,1.1-1.7,1.5-3.1c0.4-1.3,0.7-3,0.8-4.9
		c0.2-1.9,0.2-4.1,0.2-6.5v-17h25.9v36.1h-4.9v-31.4h-16.3v13.4c0,6.6-0.7,11.4-2,14.5c-1.3,3.1-3.4,4.6-6.1,4.6
		c-0.9,0-1.9-0.2-3-0.5V769.7z"/>
	<path d="M2668,774.5c-2.7,0-5.1-0.5-7.2-1.4c-2.1-0.9-3.9-2.2-5.4-3.9c-1.5-1.7-2.6-3.7-3.4-6c-0.8-2.3-1.2-4.9-1.2-7.7
		c0-2.8,0.4-5.4,1.2-7.8s1.9-4.3,3.4-6c1.5-1.7,3.3-3,5.4-3.9c2.1-0.9,4.5-1.4,7.1-1.4c2.7,0,5.1,0.5,7.2,1.4
		c2.1,0.9,3.9,2.2,5.4,3.9c1.5,1.7,2.6,3.7,3.4,6c0.8,2.3,1.2,4.9,1.2,7.7c0,2.8-0.4,5.4-1.2,7.8s-1.9,4.4-3.4,6
		c-1.5,1.7-3.3,3-5.4,3.9C2673.1,774.1,2670.7,774.5,2668,774.5z M2668,769.8c2,0,3.7-0.3,5.2-1c1.5-0.7,2.7-1.7,3.7-2.9
		c1-1.2,1.7-2.8,2.2-4.5s0.8-3.7,0.8-5.9c0-2.2-0.3-4.2-0.8-6c-0.5-1.8-1.3-3.3-2.3-4.5s-2.2-2.2-3.7-2.9c-1.5-0.7-3.2-1-5.2-1
		c-2,0-3.7,0.3-5.2,1c-1.5,0.7-2.7,1.7-3.7,2.9c-1,1.3-1.7,2.8-2.2,4.5c-0.5,1.8-0.7,3.7-0.7,5.9c0,2.2,0.3,4.2,0.8,6
		s1.3,3.3,2.3,4.5c1,1.2,2.2,2.2,3.7,2.9C2664.4,769.5,2666.1,769.8,2668,769.8z"/>
	<path d="M2692.5,773.5v-36.1h23.4v4.7h-18.5v31.4H2692.5z"/>
	<path d="M2736.7,774.5c-2.7,0-5.1-0.5-7.2-1.4c-2.1-0.9-3.9-2.2-5.4-3.9s-2.6-3.7-3.4-6s-1.2-4.9-1.2-7.7c0-2.8,0.4-5.4,1.2-7.8
		c0.8-2.3,1.9-4.3,3.4-6c1.5-1.7,3.3-3,5.4-3.9c2.1-0.9,4.5-1.4,7.1-1.4c2.7,0,5.1,0.5,7.2,1.4c2.1,0.9,3.9,2.2,5.4,3.9
		c1.5,1.7,2.6,3.7,3.4,6c0.8,2.3,1.2,4.9,1.2,7.7c0,2.8-0.4,5.4-1.2,7.8c-0.8,2.4-1.9,4.4-3.4,6c-1.5,1.7-3.3,3-5.4,3.9
		S2739.4,774.5,2736.7,774.5z M2736.7,769.8c2,0,3.7-0.3,5.2-1c1.5-0.7,2.7-1.7,3.7-2.9c1-1.2,1.7-2.8,2.2-4.5s0.8-3.7,0.8-5.9
		c0-2.2-0.3-4.2-0.8-6c-0.5-1.8-1.3-3.3-2.3-4.5s-2.2-2.2-3.7-2.9c-1.5-0.7-3.2-1-5.2-1c-2,0-3.7,0.3-5.2,1
		c-1.5,0.7-2.7,1.7-3.7,2.9c-1,1.3-1.7,2.8-2.2,4.5c-0.5,1.8-0.7,3.7-0.7,5.9c0,2.2,0.3,4.2,0.8,6c0.5,1.8,1.3,3.3,2.3,4.5
		s2.2,2.2,3.7,2.9C2733,769.5,2734.8,769.8,2736.7,769.8z"/>
	<path d="M2770,773.5v-31.4h-12.7v-4.7h30.3v4.7h-12.7v31.4H2770z"/>
	<path d="M2822.7,737.4v36.1h-4.9v-28.3l-18.9,28.3h-4.9v-36.1h4.9v28.3l18.9-28.3H2822.7z"/>
	<path d="M2832,773.5v-36.1h28.4v36.1h-4.9v-31.4h-18.6v31.4H2832z"/>
	<path d="M2885.1,769.9c2.7,0,5-0.6,6.8-1.8c1.8-1.2,3.2-2.9,4.3-5.2l4.7,1.7c-1.5,3.2-3.5,5.6-6.2,7.3s-5.9,2.6-9.5,2.6
		c-2.6,0-5-0.5-7.1-1.4c-2.1-0.9-3.9-2.2-5.5-3.8c-1.5-1.7-2.7-3.7-3.5-6c-0.8-2.4-1.2-5-1.2-7.9c0-2.9,0.4-5.6,1.2-7.9
		c0.8-2.4,2-4.4,3.4-6c1.5-1.7,3.3-2.9,5.4-3.8c2.1-0.9,4.5-1.3,7.1-1.3c2.7,0,5.1,0.5,7.2,1.4c2.1,0.9,3.9,2.3,5.3,4
		c1.4,1.8,2.5,3.9,3.2,6.4c0.7,2.5,1,5.4,0.9,8.6H2873c0.1,2.1,0.5,3.9,1.1,5.5c0.6,1.6,1.4,3,2.5,4.1c1,1.1,2.3,2,3.7,2.6
		C2881.7,769.6,2883.3,769.9,2885.1,769.9z M2896.3,752.7c-0.3-3.8-1.4-6.7-3.4-8.7c-2-2-4.6-3-8-3c-3.4,0-6.1,1-8.1,3.1
		c-2,2.1-3.2,5-3.6,8.7H2896.3z"/>
</g>
<g>
	<path d="M1779.9,885.5v-48.2h18.2c2.6,0,5,0.4,7,1.1s3.7,1.7,5.1,3s2.4,2.9,3.1,4.8c0.7,1.9,1.1,4,1.1,6.3c0,2.3-0.4,4.4-1.1,6.3
		c-0.7,1.9-1.8,3.5-3.1,4.8s-3.1,2.3-5.1,3s-4.3,1.1-7,1.1h-12.2v17.8H1779.9z M1785.9,862.1h12.2c3.3,0,5.8-0.8,7.6-2.5
		c1.8-1.7,2.7-4,2.7-7s-0.9-5.4-2.7-7c-1.8-1.7-4.3-2.5-7.6-2.5h-12.2V862.1z"/>
	<path d="M1839.7,854.2c-0.4-0.1-0.8-0.1-1.2-0.1c-0.4,0-0.9,0-1.5,0c-1.5,0-2.8,0.2-4,0.7c-1.2,0.5-2.3,1.2-3.2,2.1
		c-0.9,0.9-1.6,2.2-2,3.6c-0.5,1.5-0.7,3.2-0.7,5.2v19.9h-6v-36.1h6v5.2c0.4-0.8,1-1.6,1.6-2.4c0.6-0.8,1.4-1.4,2.3-2
		c0.9-0.6,2-1,3.2-1.4c1.2-0.3,2.6-0.5,4.1-0.5c0.2,0,0.5,0,0.7,0s0.5,0,0.7,0V854.2z"/>
	<path d="M1860.8,886.5c-2.7,0-5.1-0.5-7.2-1.4c-2.2-0.9-4-2.2-5.5-3.9c-1.5-1.7-2.7-3.7-3.5-6s-1.2-4.9-1.2-7.7
		c0-2.8,0.4-5.4,1.2-7.7c0.8-2.3,2-4.3,3.5-6c1.5-1.7,3.3-3,5.5-3.9c2.2-0.9,4.6-1.4,7.2-1.4c2.7,0,5.1,0.5,7.3,1.4
		c2.2,0.9,4,2.2,5.5,3.9c1.5,1.7,2.7,3.7,3.5,6c0.8,2.3,1.2,4.9,1.2,7.7c0,2.8-0.4,5.4-1.2,7.8c-0.8,2.3-2,4.4-3.5,6
		c-1.5,1.7-3.3,3-5.5,3.9S1863.5,886.5,1860.8,886.5z M1860.8,880.9c1.8,0,3.4-0.3,4.8-1c1.4-0.6,2.5-1.5,3.5-2.7
		c0.9-1.2,1.6-2.6,2.1-4.2c0.5-1.7,0.7-3.5,0.7-5.5c0-2.1-0.2-3.9-0.7-5.6c-0.5-1.7-1.2-3.1-2.1-4.2c-0.9-1.2-2.1-2-3.5-2.7
		c-1.4-0.6-3-0.9-4.8-0.9c-1.8,0-3.4,0.3-4.8,0.9c-1.4,0.6-2.5,1.5-3.5,2.7s-1.6,2.6-2.1,4.2c-0.5,1.6-0.7,3.5-0.7,5.5
		c0,2.1,0.2,3.9,0.7,5.6c0.5,1.7,1.2,3.1,2.1,4.2s2.1,2.1,3.5,2.7C1857.4,880.6,1859,880.9,1860.8,880.9z"/>
	<path d="M1886.3,885.5v-49.2h6v49.2H1886.3z"/>
	<path d="M1917.8,881c2.5,0,4.6-0.5,6.2-1.6c1.6-1.1,3-2.7,4-4.7l5.8,1.9c-1.4,3.2-3.5,5.7-6.3,7.4c-2.8,1.7-6,2.6-9.7,2.6
		c-2.6,0-5-0.5-7.2-1.4c-2.2-0.9-4-2.2-5.5-3.9c-1.5-1.7-2.7-3.7-3.5-6c-0.8-2.3-1.3-5-1.3-7.8c0-2.9,0.4-5.5,1.2-7.9
		c0.8-2.4,2-4.4,3.5-6c1.5-1.6,3.4-2.9,5.5-3.8c2.1-0.9,4.5-1.4,7.1-1.4c2.8,0,5.2,0.5,7.4,1.4c2.1,1,3.9,2.3,5.4,4.1
		c1.4,1.8,2.5,4,3.2,6.5c0.7,2.6,1,5.5,0.8,8.7h-27.7c0.1,1.9,0.5,3.5,1.1,5c0.6,1.5,1.3,2.7,2.3,3.7s2.1,1.8,3.4,2.3
		C1914.7,880.7,1916.1,881,1917.8,881z M1928.1,864.4c-0.3-3.4-1.3-6-3.1-7.8c-1.8-1.8-4.3-2.7-7.4-2.7c-3.1,0-5.5,0.9-7.4,2.7
		c-1.9,1.8-3,4.4-3.5,7.8H1928.1z"/>
	<path d="M1937.7,849.4h7.3v-12.1h6v12.1h10.9v5.6H1951v19.7c0,1.9,0.4,3.3,1.2,4.1s2.2,1.3,4.1,1.3h5.6v5.4h-7
		c-1.5,0-2.9-0.2-4.1-0.6c-1.2-0.4-2.3-1-3.1-1.8s-1.5-1.8-2-2.9c-0.4-1.2-0.7-2.5-0.7-3.9V855h-7.3V849.4z"/>
	<path d="M1983.5,848.4c4.9,0,8.6,1.3,11,3.8c2.4,2.5,3.6,6.4,3.6,11.5v21.8h-6v-5.7c-1.3,2.2-3,3.9-5.1,5c-2.1,1.1-4.6,1.7-7.5,1.7
		c-1.9,0-3.6-0.2-5.1-0.7c-1.5-0.5-2.8-1.2-3.9-2.1s-1.9-2-2.5-3.3s-0.9-2.8-0.9-4.4c0-1.9,0.3-3.5,1-4.8c0.7-1.4,1.7-2.5,2.9-3.4
		c1.3-0.9,2.8-1.7,4.6-2.2c1.8-0.6,3.8-1,6.1-1.3l10.4-1.3c0-3.2-0.7-5.5-2.2-6.9c-1.4-1.4-3.6-2.2-6.6-2.2c-2.6,0-4.6,0.5-6.1,1.5
		c-1.5,1-2.6,2.6-3.2,4.7l-5.6-1.4c0.9-3.3,2.6-5.8,5.2-7.6C1976.3,849.3,1979.6,848.4,1983.5,848.4z M1982.5,868.7
		c-3.3,0.4-5.7,1.2-7.2,2.2c-1.5,1.1-2.2,2.6-2.2,4.6c0,1.9,0.6,3.4,1.9,4.4c1.3,1,3.2,1.5,5.8,1.5c1.4,0,2.7-0.2,3.9-0.6
		c1.2-0.4,2.3-0.9,3.2-1.7c0.9-0.7,1.7-1.6,2.3-2.6c0.6-1,1.1-2.1,1.4-3.3c0.3-0.9,0.5-1.9,0.5-2.9c0-1,0.1-1.9,0.1-2.7v-0.1
		L1982.5,868.7z"/>
	<path d="M2025.5,854.2c-0.4-0.1-0.8-0.1-1.2-0.1c-0.4,0-0.9,0-1.5,0c-1.5,0-2.8,0.2-4,0.7c-1.2,0.5-2.3,1.2-3.2,2.1
		c-0.9,0.9-1.6,2.2-2,3.6c-0.5,1.5-0.7,3.2-0.7,5.2v19.9h-6v-36.1h6v5.2c0.4-0.8,1-1.6,1.6-2.4c0.6-0.8,1.4-1.4,2.3-2
		c0.9-0.6,2-1,3.2-1.4c1.2-0.3,2.6-0.5,4.1-0.5c0.2,0,0.5,0,0.7,0s0.5,0,0.7,0V854.2z"/>
	<path d="M2044.3,886.5c-4.3,0-7.8-0.9-10.5-2.7c-2.7-1.8-4.4-4.5-5.2-8l6.2-1c0.6,2.2,1.7,3.8,3.3,4.9c1.6,1.1,3.7,1.6,6.4,1.6
		c2.5,0,4.5-0.5,6-1.5c1.4-1,2.2-2.4,2.2-4.2c0-0.5-0.1-0.9-0.2-1.4c-0.1-0.4-0.3-0.8-0.6-1.2c-0.3-0.4-0.6-0.7-1.1-1
		c-0.5-0.3-1.1-0.6-1.8-0.9c-0.6-0.2-1.5-0.5-2.6-0.9c-1.1-0.3-2.3-0.7-3.7-1.1c-1.8-0.5-3.5-1-5.1-1.6c-1.6-0.6-3-1.2-4.1-2
		c-1.2-0.8-2.1-1.7-2.7-2.8c-0.7-1.1-1-2.4-1-4c0-1.5,0.3-2.9,1-4.2c0.7-1.3,1.6-2.4,2.9-3.3c1.2-0.9,2.7-1.6,4.4-2.1
		c1.7-0.5,3.6-0.8,5.7-0.8c2,0,3.9,0.3,5.6,0.8c1.7,0.5,3.2,1.2,4.5,2.1c1.3,0.9,2.3,2,3.2,3.3s1.3,2.8,1.6,4.4l-6.1,1.1
		c-0.1-1-0.4-1.9-0.9-2.7c-0.5-0.8-1.1-1.4-1.9-2c-0.8-0.6-1.7-1-2.7-1.3c-1-0.3-2.2-0.4-3.4-0.4c-1.1,0-2.1,0.1-3.1,0.4
		c-1,0.2-1.8,0.6-2.5,1c-0.7,0.4-1.2,1-1.6,1.6c-0.4,0.6-0.6,1.3-0.6,2c0,0.8,0.2,1.4,0.7,2c0.5,0.5,1,1,1.8,1.4s1.5,0.7,2.4,1
		s1.8,0.5,2.6,0.8c1.1,0.3,2.2,0.7,3.4,1c1.2,0.4,2.4,0.7,3.6,1.1c1.5,0.5,2.8,1,3.9,1.6c1.1,0.6,2,1.3,2.6,2.1s1.2,1.6,1.5,2.6
		c0.3,0.9,0.5,2,0.5,3.1c0,1.7-0.3,3.3-1,4.7c-0.7,1.4-1.6,2.5-2.8,3.5c-1.2,1-2.7,1.7-4.5,2.2S2046.5,886.5,2044.3,886.5z"/>
	<path d="M2066,837.4h6v29.4l15.2-17.4h7.7l-16,18.1l17.8,18.1h-8.3l-16.4-17.4v17.4h-6V837.4z"/>
	<path d="M2130.3,867.7h-10.9v17.8h-6v-48.2h18.2c2.6,0,5,0.4,7,1.1s3.7,1.7,5.1,3s2.4,2.9,3.1,4.8c0.7,1.9,1.1,4,1.1,6.3
		c0,3.9-0.9,7-2.8,9.6c-1.9,2.5-4.6,4.2-8.2,5.1l12,18.4h-7L2130.3,867.7z M2119.4,862.1h12.2c3.3,0,5.8-0.8,7.6-2.5
		c1.8-1.7,2.7-4,2.7-7s-0.9-5.4-2.7-7c-1.8-1.7-4.3-2.5-7.6-2.5h-12.2V862.1z"/>
	<path d="M2171.8,881c2.5,0,4.6-0.5,6.2-1.6c1.6-1.1,3-2.7,4-4.7l5.8,1.9c-1.4,3.2-3.5,5.7-6.3,7.4c-2.8,1.7-6,2.6-9.7,2.6
		c-2.6,0-5-0.5-7.2-1.4c-2.2-0.9-4-2.2-5.5-3.9c-1.5-1.7-2.7-3.7-3.5-6c-0.8-2.3-1.3-5-1.3-7.8c0-2.9,0.4-5.5,1.2-7.9
		c0.8-2.4,2-4.4,3.5-6c1.5-1.6,3.4-2.9,5.5-3.8c2.1-0.9,4.5-1.4,7.1-1.4c2.8,0,5.2,0.5,7.4,1.4c2.1,1,3.9,2.3,5.4,4.1
		c1.4,1.8,2.5,4,3.2,6.5c0.7,2.6,1,5.5,0.8,8.7h-27.7c0.1,1.9,0.5,3.5,1.1,5c0.6,1.5,1.3,2.7,2.3,3.7s2.1,1.8,3.4,2.3
		C2168.8,880.7,2170.2,881,2171.8,881z M2182.2,864.4c-0.3-3.4-1.3-6-3.1-7.8c-1.8-1.8-4.3-2.7-7.4-2.7c-3.1,0-5.5,0.9-7.4,2.7
		c-1.9,1.8-3,4.4-3.5,7.8H2182.2z"/>
	<path d="M2210.3,848.4c2.9,0,5.4,0.6,7.3,1.7c2,1.1,3.6,2.7,4.7,4.8v-5.5h6v34.2c0,2.8-0.4,5.3-1.1,7.6s-1.8,4.3-3.3,6
		c-1.5,1.7-3.2,3-5.4,3.9c-2.1,0.9-4.6,1.4-7.4,1.4c-1.9,0-3.6-0.2-5.3-0.7c-1.6-0.4-3.1-1.1-4.5-2c-1.3-0.9-2.5-2-3.5-3.3
		c-1-1.3-1.8-2.8-2.5-4.5l6-1.6c0.8,2.1,2.1,3.6,3.7,4.7c1.7,1.1,3.7,1.6,6,1.6c1.9,0,3.5-0.3,4.9-1c1.4-0.6,2.6-1.6,3.5-2.7
		c0.9-1.2,1.7-2.6,2.1-4.2s0.7-3.5,0.7-5.5v-4.8c-1.2,2.1-2.8,3.7-4.8,4.8c-2,1.1-4.4,1.7-7.3,1.7c-2.4,0-4.6-0.4-6.6-1.3
		s-3.8-2.1-5.2-3.7c-1.5-1.6-2.6-3.5-3.4-5.8s-1.2-4.8-1.2-7.6c0-2.8,0.4-5.4,1.2-7.7c0.8-2.3,1.9-4.2,3.4-5.8
		c1.4-1.6,3.2-2.8,5.2-3.7C2205.6,848.8,2207.8,848.4,2210.3,848.4z M2211.3,879.6c1.8,0,3.3-0.3,4.7-0.9c1.4-0.6,2.5-1.5,3.5-2.6
		c0.9-1.1,1.7-2.4,2.2-4c0.5-1.6,0.7-3.3,0.7-5.3c0-2-0.3-3.8-0.8-5.4c-0.5-1.6-1.2-2.9-2.2-4s-2.1-1.9-3.5-2.5
		c-1.4-0.6-2.9-0.9-4.6-0.9c-1.7,0-3.3,0.3-4.7,0.9c-1.4,0.6-2.5,1.5-3.5,2.6c-1,1.1-1.7,2.4-2.2,4c-0.5,1.6-0.8,3.3-0.8,5.3
		c0,2,0.3,3.8,0.8,5.3c0.5,1.6,1.2,2.9,2.2,4c1,1.1,2.1,1.9,3.5,2.5C2208,879.3,2209.5,879.6,2211.3,879.6z"/>
	<path d="M2242.9,869.2c0,2,0.2,3.7,0.7,5.2c0.5,1.5,1.1,2.7,2,3.6c0.9,1,1.9,1.7,3.1,2.1c1.2,0.5,2.6,0.7,4,0.7s2.9-0.2,4.1-0.7
		c1.2-0.5,2.3-1.2,3.1-2.1c0.9-0.9,1.5-2.2,2-3.6c0.5-1.5,0.7-3.2,0.7-5.2v-19.8h6v36.1h-6v-5.2c-0.4,0.8-1,1.6-1.6,2.4
		c-0.6,0.8-1.4,1.4-2.3,2c-0.9,0.6-2,1-3.2,1.4c-1.2,0.3-2.6,0.5-4.1,0.5c-2.2,0-4.1-0.3-5.9-1c-1.8-0.6-3.3-1.6-4.6-3
		c-1.3-1.3-2.3-3-2.9-5.1c-0.7-2-1-4.5-1-7.2v-20.9h6V869.2z"/>
	<path d="M2278.7,885.5v-49.2h6v49.2H2278.7z"/>
	<path d="M2308.9,848.4c4.9,0,8.6,1.3,11,3.8c2.4,2.5,3.6,6.4,3.6,11.5v21.8h-6v-5.7c-1.3,2.2-3,3.9-5.1,5c-2.1,1.1-4.6,1.7-7.5,1.7
		c-1.9,0-3.6-0.2-5.1-0.7c-1.5-0.5-2.8-1.2-3.9-2.1s-1.9-2-2.5-3.3s-0.9-2.8-0.9-4.4c0-1.9,0.3-3.5,1-4.8c0.7-1.4,1.7-2.5,2.9-3.4
		c1.3-0.9,2.8-1.7,4.6-2.2c1.8-0.6,3.8-1,6.1-1.3l10.4-1.3c0-3.2-0.7-5.5-2.2-6.9c-1.4-1.4-3.6-2.2-6.6-2.2c-2.6,0-4.6,0.5-6.1,1.5
		c-1.5,1-2.6,2.6-3.2,4.7l-5.6-1.4c0.9-3.3,2.6-5.8,5.2-7.6C2301.7,849.3,2305,848.4,2308.9,848.4z M2307.9,868.7
		c-3.3,0.4-5.7,1.2-7.2,2.2c-1.5,1.1-2.2,2.6-2.2,4.6c0,1.9,0.6,3.4,1.9,4.4c1.3,1,3.2,1.5,5.8,1.5c1.4,0,2.7-0.2,3.9-0.6
		c1.2-0.4,2.3-0.9,3.2-1.7c0.9-0.7,1.7-1.6,2.3-2.6c0.6-1,1.1-2.1,1.4-3.3c0.3-0.9,0.5-1.9,0.5-2.9c0-1,0.1-1.9,0.1-2.7v-0.1
		L2307.9,868.7z"/>
	<path d="M2350.9,854.2c-0.4-0.1-0.8-0.1-1.2-0.1c-0.4,0-0.9,0-1.5,0c-1.5,0-2.8,0.2-4,0.7c-1.2,0.5-2.3,1.2-3.2,2.1
		c-0.9,0.9-1.6,2.2-2,3.6c-0.5,1.5-0.7,3.2-0.7,5.2v19.9h-6v-36.1h6v5.2c0.4-0.8,1-1.6,1.6-2.4c0.6-0.8,1.4-1.4,2.3-2
		c0.9-0.6,2-1,3.2-1.4c1.2-0.3,2.6-0.5,4.1-0.5c0.2,0,0.5,0,0.7,0s0.5,0,0.7,0V854.2z"/>
	<path d="M1779.9,965.8v-48.2h5.9l16.9,35.6l16.8-35.6h6v48.1h-6v-35.7l-14.1,30h-5.4l-14.1-30v35.8H1779.9z"/>
	<path d="M1850.2,966.8c-2.7,0-5.1-0.5-7.2-1.4c-2.2-0.9-4-2.2-5.5-3.9c-1.5-1.7-2.7-3.7-3.5-6s-1.2-4.9-1.2-7.7
		c0-2.8,0.4-5.4,1.2-7.7c0.8-2.3,2-4.3,3.5-6c1.5-1.7,3.3-3,5.5-3.9c2.2-0.9,4.6-1.4,7.2-1.4c2.7,0,5.1,0.5,7.3,1.4
		c2.2,0.9,4,2.2,5.5,3.9c1.5,1.7,2.7,3.7,3.5,6c0.8,2.3,1.2,4.9,1.2,7.7c0,2.8-0.4,5.4-1.2,7.8c-0.8,2.3-2,4.4-3.5,6
		c-1.5,1.7-3.3,3-5.5,3.9S1852.9,966.8,1850.2,966.8z M1850.2,961.2c1.8,0,3.4-0.3,4.8-1c1.4-0.6,2.5-1.5,3.5-2.7
		c0.9-1.2,1.6-2.6,2.1-4.2c0.5-1.7,0.7-3.5,0.7-5.5c0-2.1-0.2-3.9-0.7-5.6c-0.5-1.7-1.2-3.1-2.1-4.2c-0.9-1.2-2.1-2-3.5-2.7
		c-1.4-0.6-3-0.9-4.8-0.9c-1.8,0-3.4,0.3-4.8,0.9c-1.4,0.6-2.5,1.5-3.5,2.7s-1.6,2.6-2.1,4.2c-0.5,1.6-0.7,3.5-0.7,5.5
		c0,2.1,0.2,3.9,0.7,5.6c0.5,1.7,1.2,3.1,2.1,4.2s2.1,2.1,3.5,2.7C1846.8,960.9,1848.4,961.2,1850.2,961.2z"/>
	<path d="M1900.7,946c0-2-0.2-3.7-0.7-5.2c-0.5-1.5-1.1-2.7-2-3.6c-0.9-0.9-1.9-1.6-3.1-2.1c-1.2-0.5-2.6-0.7-4-0.7
		c-1.5,0-2.8,0.2-4,0.7c-1.2,0.5-2.3,1.2-3.2,2.1c-0.9,0.9-1.6,2.2-2,3.6c-0.5,1.5-0.7,3.2-0.7,5.2v19.9h-6v-36.1h6v5.2
		c0.4-0.8,1-1.6,1.6-2.4c0.6-0.8,1.4-1.4,2.3-2c0.9-0.6,2-1,3.2-1.4c1.2-0.3,2.6-0.5,4.1-0.5c2.2,0,4.2,0.3,5.9,1
		c1.8,0.6,3.3,1.6,4.6,3c1.3,1.3,2.3,3,2.9,5.1s1,4.5,1,7.2v20.9h-6V946z"/>
	<path d="M1911.3,929.7h7.3v-12.1h6v12.1h10.9v5.6h-10.9V955c0,1.9,0.4,3.3,1.2,4.1s2.2,1.3,4.1,1.3h5.6v5.4h-7
		c-1.5,0-2.9-0.2-4.1-0.6c-1.2-0.4-2.3-1-3.1-1.8s-1.5-1.8-2-2.9c-0.4-1.2-0.7-2.5-0.7-3.9v-21.1h-7.3V929.7z"/>
	<path d="M1956.6,966.8c-4.3,0-7.8-0.9-10.5-2.7c-2.7-1.8-4.4-4.5-5.2-8l6.2-1c0.6,2.2,1.7,3.8,3.3,4.9c1.6,1.1,3.7,1.6,6.4,1.6
		c2.5,0,4.5-0.5,6-1.5c1.4-1,2.2-2.4,2.2-4.2c0-0.5-0.1-0.9-0.2-1.4c-0.1-0.4-0.3-0.8-0.6-1.2c-0.3-0.4-0.6-0.7-1.1-1
		c-0.5-0.3-1.1-0.6-1.8-0.9c-0.6-0.2-1.5-0.5-2.6-0.9c-1.1-0.3-2.3-0.7-3.7-1.1c-1.8-0.5-3.5-1-5.1-1.6c-1.6-0.6-3-1.2-4.1-2
		c-1.2-0.8-2.1-1.7-2.7-2.8c-0.7-1.1-1-2.4-1-4c0-1.5,0.3-2.9,1-4.2c0.7-1.3,1.6-2.4,2.9-3.3c1.2-0.9,2.7-1.6,4.4-2.1
		c1.7-0.5,3.6-0.8,5.7-0.8c2,0,3.9,0.3,5.6,0.8c1.7,0.5,3.2,1.2,4.5,2.1c1.3,0.9,2.3,2,3.2,3.3s1.3,2.8,1.6,4.4l-6.1,1.1
		c-0.1-1-0.4-1.9-0.9-2.7c-0.5-0.8-1.1-1.4-1.9-2c-0.8-0.6-1.7-1-2.7-1.3c-1-0.3-2.2-0.4-3.4-0.4c-1.1,0-2.1,0.1-3.1,0.4
		c-1,0.2-1.8,0.6-2.5,1c-0.7,0.4-1.2,1-1.6,1.6c-0.4,0.6-0.6,1.3-0.6,2c0,0.8,0.2,1.4,0.7,2c0.5,0.5,1,1,1.8,1.4s1.5,0.7,2.4,1
		s1.8,0.5,2.6,0.8c1.1,0.3,2.2,0.7,3.4,1c1.2,0.4,2.4,0.7,3.6,1.1c1.5,0.5,2.8,1,3.9,1.6c1.1,0.6,2,1.3,2.6,2.1s1.2,1.6,1.5,2.6
		c0.3,0.9,0.5,2,0.5,3.1c0,1.7-0.3,3.3-1,4.7c-0.7,1.4-1.6,2.5-2.8,3.5c-1.2,1-2.7,1.7-4.5,2.2S1958.8,966.8,1956.6,966.8z"/>
	<path d="M1993.9,961.2c2.5,0,4.6-0.5,6.2-1.6c1.6-1.1,3-2.7,4-4.7l5.8,1.9c-1.4,3.2-3.5,5.7-6.3,7.4c-2.8,1.7-6,2.6-9.7,2.6
		c-2.6,0-5-0.5-7.2-1.4c-2.2-0.9-4-2.2-5.5-3.9c-1.5-1.7-2.7-3.7-3.5-6c-0.8-2.3-1.3-5-1.3-7.8c0-2.9,0.4-5.5,1.2-7.9
		c0.8-2.4,2-4.4,3.5-6c1.5-1.6,3.4-2.9,5.5-3.8c2.1-0.9,4.5-1.4,7.1-1.4c2.8,0,5.2,0.5,7.4,1.4c2.1,1,3.9,2.3,5.4,4.1
		c1.4,1.8,2.5,4,3.2,6.5c0.7,2.6,1,5.5,0.8,8.7h-27.7c0.1,1.9,0.5,3.5,1.1,5c0.6,1.5,1.3,2.7,2.3,3.7s2.1,1.8,3.4,2.3
		C1990.8,961,1992.3,961.2,1993.9,961.2z M2004.2,944.7c-0.3-3.4-1.3-6-3.1-7.8c-1.8-1.8-4.3-2.7-7.4-2.7c-3.1,0-5.5,0.9-7.4,2.7
		c-1.9,1.8-3,4.4-3.5,7.8H2004.2z"/>
	<path d="M2036.5,934.5c-0.4-0.1-0.8-0.1-1.2-0.1c-0.4,0-0.9,0-1.5,0c-1.5,0-2.8,0.2-4,0.7c-1.2,0.5-2.3,1.2-3.2,2.1
		c-0.9,0.9-1.6,2.2-2,3.6c-0.5,1.5-0.7,3.2-0.7,5.2v19.9h-6v-36.1h6v5.2c0.4-0.8,1-1.6,1.6-2.4c0.6-0.8,1.4-1.4,2.3-2
		c0.9-0.6,2-1,3.2-1.4c1.2-0.3,2.6-0.5,4.1-0.5c0.2,0,0.5,0,0.7,0s0.5,0,0.7,0V934.5z"/>
	<path d="M2061.4,934.5c-0.4-0.1-0.8-0.1-1.2-0.1c-0.4,0-0.9,0-1.5,0c-1.5,0-2.8,0.2-4,0.7c-1.2,0.5-2.3,1.2-3.2,2.1
		c-0.9,0.9-1.6,2.2-2,3.6c-0.5,1.5-0.7,3.2-0.7,5.2v19.9h-6v-36.1h6v5.2c0.4-0.8,1-1.6,1.6-2.4c0.6-0.8,1.4-1.4,2.3-2
		c0.9-0.6,2-1,3.2-1.4c1.2-0.3,2.6-0.5,4.1-0.5c0.2,0,0.5,0,0.7,0s0.5,0,0.7,0V934.5z"/>
	<path d="M2080.9,928.7c4.9,0,8.6,1.3,11,3.8c2.4,2.5,3.6,6.4,3.6,11.5v21.8h-6v-5.7c-1.3,2.2-3,3.9-5.1,5c-2.1,1.1-4.6,1.7-7.5,1.7
		c-1.9,0-3.6-0.2-5.1-0.7c-1.5-0.5-2.8-1.2-3.9-2.1s-1.9-2-2.5-3.3s-0.9-2.8-0.9-4.4c0-1.9,0.3-3.5,1-4.8c0.7-1.4,1.7-2.5,2.9-3.4
		c1.3-0.9,2.8-1.7,4.6-2.2c1.8-0.6,3.8-1,6.1-1.3l10.4-1.3c0-3.2-0.7-5.5-2.2-6.9c-1.4-1.4-3.6-2.2-6.6-2.2c-2.6,0-4.6,0.5-6.1,1.5
		c-1.5,1-2.6,2.6-3.2,4.7l-5.6-1.4c0.9-3.3,2.6-5.8,5.2-7.6C2073.7,929.6,2076.9,928.7,2080.9,928.7z M2079.9,949
		c-3.3,0.4-5.7,1.2-7.2,2.2c-1.5,1.1-2.2,2.6-2.2,4.6c0,1.9,0.6,3.4,1.9,4.4c1.3,1,3.2,1.5,5.8,1.5c1.4,0,2.7-0.2,3.9-0.6
		c1.2-0.4,2.3-0.9,3.2-1.7c0.9-0.7,1.7-1.6,2.3-2.6c0.6-1,1.1-2.1,1.4-3.3c0.3-0.9,0.5-1.9,0.5-2.9c0-1,0.1-1.9,0.1-2.7v-0.1
		L2079.9,949z"/>
	<path d="M2100.2,929.7h7.3v-12.1h6v12.1h10.9v5.6h-10.9V955c0,1.9,0.4,3.3,1.2,4.1s2.2,1.3,4.1,1.3h5.6v5.4h-7
		c-1.5,0-2.9-0.2-4.1-0.6c-1.2-0.4-2.3-1-3.1-1.8s-1.5-1.8-2-2.9c-0.4-1.2-0.7-2.5-0.7-3.9v-21.1h-7.3V929.7z"/>
	<path d="M2162,948h-10.9v17.8h-6v-48.2h18.2c2.6,0,5,0.4,7,1.1s3.7,1.7,5.1,3s2.4,2.9,3.1,4.8c0.7,1.9,1.1,4,1.1,6.3
		c0,3.9-0.9,7-2.8,9.6c-1.9,2.5-4.6,4.2-8.2,5.1l12,18.4h-7L2162,948z M2151.1,942.4h12.2c3.3,0,5.8-0.8,7.6-2.5
		c1.8-1.7,2.7-4,2.7-7s-0.9-5.4-2.7-7c-1.8-1.7-4.3-2.5-7.6-2.5h-12.2V942.4z"/>
	<path d="M2203.6,961.2c2.5,0,4.6-0.5,6.2-1.6c1.6-1.1,3-2.7,4-4.7l5.8,1.9c-1.4,3.2-3.5,5.7-6.3,7.4c-2.8,1.7-6,2.6-9.7,2.6
		c-2.6,0-5-0.5-7.2-1.4c-2.2-0.9-4-2.2-5.5-3.9c-1.5-1.7-2.7-3.7-3.5-6c-0.8-2.3-1.3-5-1.3-7.8c0-2.9,0.4-5.5,1.2-7.9
		c0.8-2.4,2-4.4,3.5-6c1.5-1.6,3.4-2.9,5.5-3.8c2.1-0.9,4.5-1.4,7.1-1.4c2.8,0,5.2,0.5,7.4,1.4c2.1,1,3.9,2.3,5.4,4.1
		c1.4,1.8,2.5,4,3.2,6.5c0.7,2.6,1,5.5,0.8,8.7h-27.7c0.1,1.9,0.5,3.5,1.1,5c0.6,1.5,1.3,2.7,2.3,3.7s2.1,1.8,3.4,2.3
		C2200.5,961,2201.9,961.2,2203.6,961.2z M2213.9,944.7c-0.3-3.4-1.3-6-3.1-7.8c-1.8-1.8-4.3-2.7-7.4-2.7c-3.1,0-5.5,0.9-7.4,2.7
		c-1.9,1.8-3,4.4-3.5,7.8H2213.9z"/>
	<path d="M2242,928.7c2.9,0,5.4,0.6,7.3,1.7c2,1.1,3.6,2.7,4.7,4.8v-5.5h6v34.2c0,2.8-0.4,5.3-1.1,7.6s-1.8,4.3-3.3,6
		c-1.5,1.7-3.2,3-5.4,3.9c-2.1,0.9-4.6,1.4-7.4,1.4c-1.9,0-3.6-0.2-5.3-0.7c-1.6-0.4-3.1-1.1-4.5-2c-1.3-0.9-2.5-2-3.5-3.3
		c-1-1.3-1.8-2.8-2.5-4.5l6-1.6c0.8,2.1,2.1,3.6,3.7,4.7c1.7,1.1,3.7,1.6,6,1.6c1.9,0,3.5-0.3,4.9-1c1.4-0.6,2.6-1.6,3.5-2.7
		c0.9-1.2,1.7-2.6,2.1-4.2s0.7-3.5,0.7-5.5V959c-1.2,2.1-2.8,3.7-4.8,4.8c-2,1.1-4.4,1.7-7.3,1.7c-2.4,0-4.6-0.4-6.6-1.3
		s-3.8-2.1-5.2-3.7c-1.5-1.6-2.6-3.5-3.4-5.8s-1.2-4.8-1.2-7.6c0-2.8,0.4-5.4,1.2-7.7c0.8-2.3,1.9-4.2,3.4-5.8
		c1.4-1.6,3.2-2.8,5.2-3.7C2237.4,929.1,2239.6,928.7,2242,928.7z M2243,959.8c1.8,0,3.3-0.3,4.7-0.9c1.4-0.6,2.5-1.5,3.5-2.6
		c0.9-1.1,1.7-2.4,2.2-4c0.5-1.6,0.7-3.3,0.7-5.3c0-2-0.3-3.8-0.8-5.4c-0.5-1.6-1.2-2.9-2.2-4s-2.1-1.9-3.5-2.5
		c-1.4-0.6-2.9-0.9-4.6-0.9c-1.7,0-3.3,0.3-4.7,0.9c-1.4,0.6-2.5,1.5-3.5,2.6c-1,1.1-1.7,2.4-2.2,4c-0.5,1.6-0.8,3.3-0.8,5.3
		c0,2,0.3,3.8,0.8,5.3c0.5,1.6,1.2,2.9,2.2,4c1,1.1,2.1,1.9,3.5,2.5C2239.7,959.6,2241.3,959.8,2243,959.8z"/>
	<path d="M2274.7,949.5c0,2,0.2,3.7,0.7,5.2c0.5,1.5,1.1,2.7,2,3.6c0.9,1,1.9,1.7,3.1,2.1c1.2,0.5,2.6,0.7,4,0.7s2.9-0.2,4.1-0.7
		c1.2-0.5,2.3-1.2,3.1-2.1c0.9-0.9,1.5-2.2,2-3.6c0.5-1.5,0.7-3.2,0.7-5.2v-19.8h6v36.1h-6v-5.2c-0.4,0.8-1,1.6-1.6,2.4
		c-0.6,0.8-1.4,1.4-2.3,2c-0.9,0.6-2,1-3.2,1.4c-1.2,0.3-2.6,0.5-4.1,0.5c-2.2,0-4.1-0.3-5.9-1c-1.8-0.6-3.3-1.6-4.6-3
		c-1.3-1.3-2.3-3-2.9-5.1c-0.7-2-1-4.5-1-7.2v-20.9h6V949.5z"/>
	<path d="M2310.4,965.8v-49.2h6v49.2H2310.4z"/>
	<path d="M2340.7,928.7c4.9,0,8.6,1.3,11,3.8c2.4,2.5,3.6,6.4,3.6,11.5v21.8h-6v-5.7c-1.3,2.2-3,3.9-5.1,5c-2.1,1.1-4.6,1.7-7.5,1.7
		c-1.9,0-3.6-0.2-5.1-0.7c-1.5-0.5-2.8-1.2-3.9-2.1s-1.9-2-2.5-3.3s-0.9-2.8-0.9-4.4c0-1.9,0.3-3.5,1-4.8c0.7-1.4,1.7-2.5,2.9-3.4
		c1.3-0.9,2.8-1.7,4.6-2.2c1.8-0.6,3.8-1,6.1-1.3l10.4-1.3c0-3.2-0.7-5.5-2.2-6.9c-1.4-1.4-3.6-2.2-6.6-2.2c-2.6,0-4.6,0.5-6.1,1.5
		c-1.5,1-2.6,2.6-3.2,4.7l-5.6-1.4c0.9-3.3,2.6-5.8,5.2-7.6C2333.5,929.6,2336.7,928.7,2340.7,928.7z M2339.6,949
		c-3.3,0.4-5.7,1.2-7.2,2.2c-1.5,1.1-2.2,2.6-2.2,4.6c0,1.9,0.6,3.4,1.9,4.4c1.3,1,3.2,1.5,5.8,1.5c1.4,0,2.7-0.2,3.9-0.6
		c1.2-0.4,2.3-0.9,3.2-1.7c0.9-0.7,1.7-1.6,2.3-2.6c0.6-1,1.1-2.1,1.4-3.3c0.3-0.9,0.5-1.9,0.5-2.9c0-1,0.1-1.9,0.1-2.7v-0.1
		L2339.6,949z"/>
	<path d="M2382.6,934.5c-0.4-0.1-0.8-0.1-1.2-0.1c-0.4,0-0.9,0-1.5,0c-1.5,0-2.8,0.2-4,0.7c-1.2,0.5-2.3,1.2-3.2,2.1
		c-0.9,0.9-1.6,2.2-2,3.6c-0.5,1.5-0.7,3.2-0.7,5.2v19.9h-6v-36.1h6v5.2c0.4-0.8,1-1.6,1.6-2.4c0.6-0.8,1.4-1.4,2.3-2
		c0.9-0.6,2-1,3.2-1.4c1.2-0.3,2.6-0.5,4.1-0.5c0.2,0,0.5,0,0.7,0s0.5,0,0.7,0V934.5z"/>
</g>
<g>
	<path d="M1784.9,1865.4h4.9v43.5h21.7v-43.5h4.9v43.5h21.7v-43.5h4.9v48.2h-58.2V1865.4z"/>
	<path d="M1852.4,1929.6v-52.2h4.9v6.1c1.2-2.2,2.8-3.9,4.9-5.2s4.6-1.9,7.7-1.9c2.6,0,4.9,0.5,6.9,1.4c2,0.9,3.8,2.2,5.2,3.9
		c1.4,1.7,2.5,3.7,3.2,6c0.7,2.3,1.1,4.9,1.1,7.7c0,2.8-0.4,5.4-1.1,7.8c-0.8,2.4-1.9,4.4-3.3,6c-1.4,1.7-3.2,3-5.2,3.9
		s-4.3,1.4-6.9,1.4c-3.1,0-5.6-0.6-7.7-1.9c-2.1-1.2-3.7-3-4.9-5.2v22.1H1852.4z M1869.2,1909.8c2,0,3.8-0.4,5.3-1.1
		c1.5-0.7,2.7-1.7,3.7-2.9c1-1.3,1.7-2.8,2.2-4.5c0.5-1.8,0.7-3.7,0.7-5.9c0-2.2-0.2-4.2-0.7-5.9c-0.5-1.8-1.2-3.3-2.2-4.5
		c-1-1.2-2.2-2.2-3.7-2.9c-1.5-0.7-3.2-1-5.2-1c-2,0-3.8,0.4-5.3,1.1c-1.5,0.7-2.7,1.7-3.7,2.9s-1.7,2.8-2.2,4.5s-0.7,3.7-0.7,5.8
		c0,2.2,0.2,4.1,0.8,5.9c0.5,1.8,1.2,3.3,2.2,4.6c1,1.3,2.2,2.2,3.7,2.9C1865.5,1909.5,1867.3,1909.8,1869.2,1909.8z"/>
	<path d="M1922.4,1877.4v36.1h-4.9v-28.3l-18.9,28.3h-4.9v-36.1h4.9v28.3l18.9-28.3H1922.4z"/>
	<path d="M1949.6,1914.1c-2.7,0-5.3-0.5-7.7-1.2c-2.4-0.8-4.5-1.9-6.3-3.5c-1.8-1.5-3.2-3.5-4.3-5.8c-1-2.3-1.6-5-1.6-8.2
		s0.5-5.8,1.6-8.2c1-2.3,2.5-4.3,4.3-5.8s3.9-2.7,6.3-3.5c2.4-0.8,5-1.2,7.7-1.2V1866h4.9v10.8c2.7,0,5.3,0.5,7.7,1.2
		c2.4,0.8,4.5,1.9,6.3,3.5s3.2,3.5,4.3,5.8c1,2.3,1.6,5.1,1.6,8.2s-0.5,5.8-1.6,8.2c-1,2.3-2.5,4.2-4.3,5.8s-3.9,2.7-6.3,3.5
		c-2.4,0.8-5,1.2-7.7,1.2v14.5h-4.9V1914.1z M1949.6,1881.5c-2.2,0-4.3,0.4-6.1,1c-1.8,0.6-3.4,1.6-4.7,2.8c-1.3,1.2-2.3,2.7-3,4.4
		c-0.7,1.7-1,3.7-1,5.9c0,2.2,0.3,4.1,1,5.9s1.7,3.2,3,4.4c1.3,1.2,2.8,2.1,4.7,2.7c1.8,0.6,3.8,1,6.1,1V1881.5z M1954.5,1909.5
		c2.3,0,4.3-0.4,6.1-1s3.4-1.5,4.7-2.7c1.3-1.2,2.3-2.6,3-4.3c0.7-1.7,1-3.7,1-5.9s-0.3-4.2-1-5.9c-0.7-1.7-1.7-3.2-3-4.4
		c-1.3-1.2-2.8-2.1-4.7-2.8c-1.8-0.6-3.8-1-6.1-1V1909.5z"/>
	<path d="M1990.5,1913.5v-31.4h-12.7v-4.7h30.3v4.7h-12.7v31.4H1990.5z"/>
	<path d="M2025.1,1908.9h3.5c0.6-0.7,1-1.6,1.4-2.7c0.4-1.1,0.6-2.5,0.9-4c0.2-1.5,0.4-3.2,0.5-5.1c0.1-1.9,0.1-3.8,0.1-5.9v-13.8
		h26.2v31.4h4.7v12.3h-4.9v-7.6h-27.4v7.6h-4.9V1908.9z M2052.8,1908.9v-26.8h-16.7v11.9c0,1.6-0.1,3.2-0.2,4.7s-0.2,2.9-0.4,4.2
		c-0.2,1.3-0.4,2.4-0.7,3.5c-0.3,1-0.6,1.9-0.9,2.5H2052.8z"/>
	<path d="M2065.7,1909.7c0.6,0.2,1.1,0.3,1.5,0.3c0.9,0,1.7-0.4,2.4-1.1c0.6-0.7,1.1-1.7,1.5-3.1s0.7-3,0.8-4.9
		c0.2-1.9,0.2-4.1,0.2-6.5v-17h25.9v36.1h-4.9v-31.4h-16.3v13.4c0,6.6-0.7,11.4-2,14.5c-1.3,3.1-3.4,4.6-6.1,4.6
		c-0.9,0-1.9-0.2-3-0.5V1909.7z"/>
	<path d="M2105.8,1913.5l6.9-14.6c-2.3-0.8-4.1-2.1-5.3-4c-1.2-1.8-1.8-4-1.8-6.4c0-1.6,0.3-3.1,0.8-4.5c0.5-1.4,1.3-2.6,2.4-3.5
		s2.3-1.8,3.9-2.3c1.5-0.6,3.3-0.8,5.4-0.8h16v36.1h-4.9v-13.7h-11.1h-0.5l-6.6,13.7H2105.8z M2118.6,1881.7c-1.4,0-2.5,0.2-3.6,0.5
		c-1,0.3-1.9,0.8-2.5,1.4c-0.7,0.6-1.2,1.3-1.5,2.2c-0.3,0.8-0.5,1.8-0.5,2.8s0.2,1.9,0.5,2.8c0.3,0.8,0.8,1.6,1.5,2.2
		c0.7,0.6,1.5,1.1,2.5,1.4c1,0.3,2.2,0.5,3.6,0.5h10.6v-13.8H2118.6z"/>
	<path d="M2171.8,1914.5c-2.7,0-5-0.5-7.1-1.4c-2.1-0.9-3.9-2.2-5.3-3.8c-1.5-1.7-2.6-3.7-3.4-6s-1.2-5-1.2-7.8
		c0-2.9,0.4-5.6,1.2-7.9s1.9-4.3,3.4-6s3.3-2.9,5.4-3.8c2.1-0.9,4.5-1.3,7.1-1.3c1.8,0,3.6,0.2,5.2,0.7s3.1,1.1,4.4,2
		c1.3,0.9,2.4,1.9,3.4,3.1s1.7,2.6,2.2,4.2l-4.8,1.5c-0.4-1.1-1-2-1.7-2.9s-1.5-1.6-2.4-2.1c-0.9-0.6-1.9-1-2.9-1.3
		c-1.1-0.3-2.2-0.5-3.4-0.5c-1.9,0-3.6,0.3-5.1,1c-1.5,0.7-2.7,1.6-3.7,2.9c-1,1.2-1.7,2.7-2.3,4.5c-0.5,1.8-0.8,3.8-0.8,6
		c0,2.2,0.3,4.1,0.8,5.9s1.2,3.3,2.2,4.5c1,1.3,2.2,2.2,3.7,2.9s3.2,1,5.1,1c2.5,0,4.6-0.6,6.3-1.7c1.7-1.1,3-2.8,3.9-4.9l5,1.5
		c-1.4,3.2-3.3,5.7-5.9,7.4C2178.5,1913.7,2175.4,1914.5,2171.8,1914.5z"/>
	<path d="M2189.5,1909.7c0.6,0.2,1.1,0.3,1.5,0.3c0.9,0,1.7-0.4,2.4-1.1c0.6-0.7,1.1-1.7,1.5-3.1c0.4-1.3,0.7-3,0.8-4.9
		c0.2-1.9,0.2-4.1,0.2-6.5v-17h25.9v36.1h-4.9v-31.4h-16.3v13.4c0,6.6-0.7,11.4-2,14.5c-1.3,3.1-3.4,4.6-6.1,4.6
		c-0.9,0-1.9-0.2-3-0.5V1909.7z"/>
	<path d="M2246.3,1914.5c-2.7,0-5.1-0.5-7.2-1.4c-2.1-0.9-3.9-2.2-5.4-3.9c-1.5-1.7-2.6-3.7-3.4-6s-1.2-4.9-1.2-7.7
		c0-2.8,0.4-5.4,1.2-7.8s1.9-4.3,3.4-6c1.5-1.7,3.3-3,5.4-3.9c2.1-0.9,4.5-1.4,7.1-1.4c2.7,0,5.1,0.5,7.2,1.4s3.9,2.2,5.4,3.9
		c1.5,1.7,2.6,3.7,3.4,6c0.8,2.3,1.2,4.9,1.2,7.7c0,2.8-0.4,5.4-1.2,7.8c-0.8,2.4-1.9,4.4-3.4,6c-1.5,1.7-3.3,3-5.4,3.9
		S2249,1914.5,2246.3,1914.5z M2246.3,1909.8c2,0,3.7-0.3,5.2-1c1.5-0.7,2.7-1.7,3.7-2.9c1-1.2,1.7-2.8,2.2-4.5
		c0.5-1.8,0.8-3.7,0.8-5.9c0-2.2-0.2-4.2-0.8-6c-0.5-1.8-1.3-3.3-2.3-4.5c-1-1.2-2.2-2.2-3.7-2.9c-1.5-0.7-3.2-1-5.2-1
		c-2,0-3.7,0.3-5.2,1c-1.5,0.7-2.7,1.7-3.7,2.9s-1.7,2.8-2.2,4.5s-0.7,3.7-0.7,5.9c0,2.2,0.3,4.2,0.8,6c0.5,1.8,1.3,3.3,2.3,4.5
		s2.2,2.2,3.7,2.9C2242.7,1909.5,2244.4,1909.8,2246.3,1909.8z"/>
	<path d="M2270.8,1913.5v-36.1h23.4v4.7h-18.5v31.4H2270.8z"/>
	<path d="M2313.3,1876.4c9.6,0,14.4,5,14.4,15v22.1h-4.9v-6.1c-1.3,2.3-3,4.1-5.3,5.3c-2.2,1.2-4.8,1.8-7.9,1.8
		c-1.9,0-3.7-0.2-5.2-0.7c-1.5-0.5-2.8-1.2-3.9-2.1c-1.1-0.9-1.9-2-2.5-3.3c-0.6-1.3-0.9-2.8-0.9-4.4c0-1.9,0.4-3.5,1.1-4.9
		c0.7-1.3,1.7-2.5,3-3.4c1.3-0.9,2.8-1.6,4.7-2.2c1.8-0.5,3.8-0.9,6-1.2l10.9-1.4c0-3.5-0.8-6.1-2.3-7.7c-1.5-1.6-4-2.4-7.3-2.4
		c-5.4,0-8.8,2.3-10,6.8l-4.7-1.1c0.8-3.3,2.5-5.8,5.1-7.6C2306.2,1877.3,2309.4,1876.4,2313.3,1876.4z M2312.4,1896.4
		c-1.8,0.2-3.4,0.5-4.7,0.9s-2.4,0.9-3.2,1.5c-0.8,0.6-1.4,1.3-1.8,2.1s-0.6,1.8-0.6,2.8c0,4.2,2.8,6.4,8.5,6.4c1.6,0,3-0.2,4.3-0.7
		c1.3-0.4,2.5-1.1,3.5-1.9c1-0.8,1.9-1.8,2.5-3c0.7-1.2,1.1-2.5,1.4-3.9c0.2-0.9,0.4-1.9,0.4-2.9c0-1,0.1-1.9,0.1-2.7L2312.4,1896.4
		z"/>
	<path d="M2336.4,1913.5v-36.1h4.9v15.7h20.4v-15.7h4.9v36.1h-4.9v-15.7h-20.4v15.7H2336.4z"/>
	<path d="M2390.1,1876.4c9.6,0,14.4,5,14.4,15v22.1h-4.9v-6.1c-1.3,2.3-3,4.1-5.3,5.3c-2.2,1.2-4.8,1.8-7.9,1.8
		c-1.9,0-3.7-0.2-5.2-0.7c-1.5-0.5-2.8-1.2-3.9-2.1c-1.1-0.9-1.9-2-2.5-3.3c-0.6-1.3-0.9-2.8-0.9-4.4c0-1.9,0.3-3.5,1.1-4.9
		s1.7-2.5,3-3.4c1.3-0.9,2.8-1.6,4.7-2.2c1.8-0.5,3.8-0.9,6-1.2l10.9-1.4c0-3.5-0.8-6.1-2.3-7.7c-1.5-1.6-4-2.4-7.3-2.4
		c-5.4,0-8.8,2.3-10,6.8l-4.7-1.1c0.8-3.3,2.5-5.8,5.1-7.6C2382.9,1877.3,2386.1,1876.4,2390.1,1876.4z M2389.1,1896.4
		c-1.8,0.2-3.4,0.5-4.7,0.9s-2.4,0.9-3.2,1.5s-1.4,1.3-1.8,2.1s-0.6,1.8-0.6,2.8c0,4.2,2.8,6.4,8.5,6.4c1.6,0,3-0.2,4.3-0.7
		s2.5-1.1,3.5-1.9s1.9-1.8,2.5-3c0.7-1.2,1.1-2.5,1.4-3.9c0.2-0.9,0.4-1.9,0.4-2.9c0-1,0.1-1.9,0.1-2.7L2389.1,1896.4z"/>
	<path d="M2415.8,1913.5v-5.7h5.7v5.7H2415.8z M2415.8,1883.1v-5.7h5.7v5.7H2415.8z"/>
</g>
<g>
	<path d="M1797.1,2021.5l-16.6-48.2h6.3l14.1,41.3l14.1-41.3h6.3l-16.6,48.2H1797.1z"/>
	<path d="M1837.9,2017c2.5,0,4.6-0.5,6.2-1.6c1.6-1.1,3-2.7,4-4.7l5.8,1.9c-1.4,3.2-3.5,5.7-6.3,7.4c-2.8,1.7-6,2.6-9.7,2.6
		c-2.6,0-5-0.5-7.2-1.4c-2.2-0.9-4-2.2-5.5-3.9c-1.5-1.7-2.7-3.7-3.5-6c-0.8-2.3-1.3-5-1.3-7.8c0-2.9,0.4-5.5,1.2-7.9
		c0.8-2.4,2-4.4,3.5-6c1.5-1.7,3.4-2.9,5.5-3.8c2.1-0.9,4.5-1.4,7.1-1.4c2.8,0,5.2,0.5,7.4,1.4c2.1,1,3.9,2.3,5.4,4.1
		c1.4,1.8,2.5,4,3.2,6.5c0.7,2.6,1,5.5,0.8,8.7h-27.7c0.1,1.9,0.5,3.5,1.1,5c0.6,1.5,1.3,2.7,2.3,3.7s2.1,1.8,3.4,2.3
		S1836.3,2017,1837.9,2017z M1848.3,2000.4c-0.3-3.4-1.3-6-3.1-7.8c-1.8-1.8-4.3-2.7-7.4-2.7c-3.1,0-5.5,0.9-7.4,2.7s-3,4.4-3.5,7.8
		H1848.3z"/>
	<path d="M1862.6,2021.5v-49.2h6v49.2H1862.6z"/>
	<path d="M1892.8,1984.4c4.9,0,8.6,1.3,11,3.8c2.4,2.5,3.6,6.4,3.6,11.5v21.8h-6v-5.7c-1.3,2.2-3,3.9-5.1,5
		c-2.1,1.1-4.6,1.7-7.5,1.7c-1.9,0-3.6-0.2-5.1-0.7c-1.5-0.5-2.8-1.2-3.9-2.1s-1.9-2-2.5-3.3s-0.9-2.8-0.9-4.4c0-1.9,0.3-3.5,1-4.8
		c0.7-1.4,1.7-2.5,2.9-3.4c1.3-0.9,2.8-1.7,4.6-2.2c1.8-0.6,3.8-1,6.1-1.3l10.4-1.3c0-3.2-0.7-5.5-2.2-6.9c-1.4-1.4-3.6-2.2-6.6-2.2
		c-2.6,0-4.6,0.5-6.1,1.5c-1.5,1-2.6,2.6-3.2,4.7l-5.6-1.4c0.9-3.3,2.6-5.8,5.2-7.6S1888.9,1984.4,1892.8,1984.4z M1891.8,2004.7
		c-3.3,0.4-5.7,1.2-7.2,2.2c-1.5,1.1-2.2,2.6-2.2,4.6c0,1.9,0.6,3.4,1.9,4.4c1.3,1,3.2,1.5,5.8,1.5c1.4,0,2.7-0.2,3.9-0.6
		c1.2-0.4,2.3-0.9,3.2-1.7c0.9-0.7,1.7-1.6,2.3-2.6s1.1-2.1,1.4-3.3c0.3-0.9,0.5-1.9,0.5-2.9c0-1,0.1-1.9,0.1-2.7v-0.1
		L1891.8,2004.7z"/>
	<path d="M1946.7,2022.5c-2.6,0-4.9-0.3-7.1-1c-2.2-0.7-4.1-1.6-5.8-2.9c-1.7-1.2-3.1-2.8-4.2-4.5c-1.1-1.8-1.9-3.7-2.3-6l6.2-1
		c0.8,3.1,2.3,5.5,4.7,7.2c2.4,1.7,5.3,2.5,8.9,2.5c1.7,0,3.3-0.2,4.7-0.6s2.6-1,3.7-1.8c1-0.8,1.8-1.7,2.4-2.7s0.8-2.2,0.8-3.5
		c0-3.3-2.2-5.7-6.7-7l-12.3-3.6c-7-2.1-10.4-6-10.4-11.9c0-2,0.4-3.8,1.2-5.5c0.8-1.7,2-3.1,3.4-4.2s3.2-2.1,5.3-2.7
		c2.1-0.6,4.3-1,6.8-1s4.7,0.3,6.8,1c2.1,0.6,3.9,1.6,5.5,2.8c1.6,1.2,2.9,2.7,4,4.4c1.1,1.7,1.8,3.7,2.3,5.9l-6.3,1.1
		c-0.2-1.5-0.7-2.8-1.4-4c-0.7-1.2-1.6-2.2-2.6-3c-1.1-0.8-2.3-1.4-3.7-1.9c-1.4-0.4-2.9-0.7-4.6-0.7c-1.6,0-3,0.2-4.3,0.6
		s-2.4,0.9-3.3,1.6c-0.9,0.7-1.6,1.5-2.1,2.4s-0.7,1.9-0.7,3c0,0.8,0.2,1.6,0.5,2.3c0.3,0.7,0.8,1.3,1.4,1.9
		c0.6,0.6,1.5,1.1,2.5,1.5c1,0.5,2.3,0.9,3.7,1.3l9.1,2.6c8.1,2.3,12.1,6.5,12.1,12.8c0,2.2-0.4,4.1-1.3,5.9s-2.1,3.3-3.7,4.6
		c-1.6,1.3-3.5,2.3-5.7,2.9C1951.8,2022.2,1949.4,2022.5,1946.7,2022.5z"/>
	<path d="M1986,1984.4c4.9,0,8.6,1.3,11,3.8c2.4,2.5,3.6,6.4,3.6,11.5v21.8h-6v-5.7c-1.3,2.2-3,3.9-5.1,5c-2.1,1.1-4.6,1.7-7.5,1.7
		c-1.9,0-3.6-0.2-5.1-0.7c-1.5-0.5-2.8-1.2-3.9-2.1s-1.9-2-2.5-3.3s-0.9-2.8-0.9-4.4c0-1.9,0.3-3.5,1-4.8c0.7-1.4,1.7-2.5,2.9-3.4
		c1.3-0.9,2.8-1.7,4.6-2.2c1.8-0.6,3.8-1,6.1-1.3l10.4-1.3c0-3.2-0.7-5.5-2.2-6.9c-1.4-1.4-3.6-2.2-6.6-2.2c-2.6,0-4.6,0.5-6.1,1.5
		c-1.5,1-2.6,2.6-3.2,4.7l-5.6-1.4c0.9-3.3,2.6-5.8,5.2-7.6S1982,1984.4,1986,1984.4z M1985,2004.7c-3.3,0.4-5.7,1.2-7.2,2.2
		c-1.5,1.1-2.2,2.6-2.2,4.6c0,1.9,0.6,3.4,1.9,4.4c1.3,1,3.2,1.5,5.8,1.5c1.4,0,2.7-0.2,3.9-0.6c1.2-0.4,2.3-0.9,3.2-1.7
		c0.9-0.7,1.7-1.6,2.3-2.6s1.1-2.1,1.4-3.3c0.3-0.9,0.5-1.9,0.5-2.9c0-1,0.1-1.9,0.1-2.7v-0.1L1985,2004.7z"/>
	<path d="M2035,2001.7c0-2-0.2-3.7-0.7-5.2s-1.1-2.7-2-3.6c-0.9-0.9-1.9-1.7-3.1-2.1c-1.2-0.5-2.6-0.7-4-0.7c-1.5,0-2.8,0.2-4,0.7
		c-1.2,0.5-2.3,1.2-3.2,2.1c-0.9,0.9-1.6,2.2-2,3.6c-0.5,1.5-0.7,3.2-0.7,5.2v19.9h-6v-36.1h6v5.2c0.4-0.8,1-1.6,1.6-2.4
		c0.6-0.8,1.4-1.4,2.3-2s2-1,3.2-1.4c1.2-0.3,2.6-0.5,4.1-0.5c2.2,0,4.2,0.3,5.9,1c1.8,0.6,3.3,1.6,4.6,3c1.3,1.3,2.3,3,2.9,5.1
		c0.7,2,1,4.5,1,7.2v20.9h-6V2001.7z"/>
	<path d="M2063.4,2022.5c-4.3,0-7.8-0.9-10.5-2.7c-2.7-1.8-4.4-4.5-5.2-8l6.2-1c0.6,2.2,1.7,3.8,3.3,4.9c1.6,1.1,3.7,1.6,6.4,1.6
		c2.5,0,4.5-0.5,6-1.5c1.4-1,2.2-2.4,2.2-4.2c0-0.5-0.1-0.9-0.2-1.4c-0.1-0.4-0.3-0.8-0.6-1.2s-0.6-0.7-1.1-1
		c-0.5-0.3-1.1-0.6-1.8-0.9c-0.6-0.2-1.5-0.5-2.6-0.9c-1.1-0.3-2.3-0.7-3.7-1.1c-1.8-0.5-3.5-1-5.1-1.6c-1.6-0.6-3-1.2-4.1-2
		c-1.2-0.8-2.1-1.7-2.7-2.8c-0.7-1.1-1-2.4-1-4c0-1.5,0.3-2.9,1-4.2c0.7-1.3,1.6-2.4,2.9-3.3c1.2-0.9,2.7-1.6,4.4-2.1
		c1.7-0.5,3.6-0.8,5.7-0.8c2,0,3.9,0.3,5.6,0.8c1.7,0.5,3.2,1.2,4.5,2.1c1.3,0.9,2.3,2,3.2,3.3s1.3,2.8,1.6,4.4l-6.1,1.1
		c-0.1-1-0.4-1.9-0.9-2.7c-0.5-0.8-1.1-1.5-1.9-2c-0.8-0.6-1.7-1-2.7-1.3c-1-0.3-2.2-0.4-3.4-0.4c-1.1,0-2.1,0.1-3.1,0.4
		c-1,0.2-1.8,0.6-2.5,1c-0.7,0.4-1.2,1-1.6,1.6c-0.4,0.6-0.6,1.3-0.6,2c0,0.8,0.2,1.4,0.7,2c0.5,0.5,1,1,1.8,1.4s1.5,0.7,2.4,1
		c0.9,0.3,1.8,0.5,2.6,0.8c1.1,0.3,2.2,0.7,3.4,1c1.2,0.4,2.4,0.7,3.6,1.1c1.5,0.5,2.8,1,3.9,1.6c1.1,0.6,2,1.3,2.6,2.1
		s1.2,1.6,1.5,2.6c0.3,0.9,0.5,2,0.5,3.1c0,1.7-0.3,3.3-1,4.7c-0.7,1.4-1.6,2.5-2.8,3.5c-1.2,1-2.7,1.7-4.5,2.2
		C2067.6,2022.3,2065.6,2022.5,2063.4,2022.5z"/>
	<path d="M2098.6,2021.5v-48.2h5.9l16.9,35.6l16.8-35.6h6v48.1h-6v-35.7l-14.1,30h-5.4l-14.1-30v35.8H2098.6z"/>
	<path d="M2169,2017c2.5,0,4.6-0.5,6.2-1.6c1.6-1.1,3-2.7,4-4.7l5.8,1.9c-1.4,3.2-3.5,5.7-6.3,7.4c-2.8,1.7-6,2.6-9.7,2.6
		c-2.6,0-5-0.5-7.2-1.4c-2.2-0.9-4-2.2-5.5-3.9c-1.5-1.7-2.7-3.7-3.5-6c-0.8-2.3-1.3-5-1.3-7.8c0-2.9,0.4-5.5,1.2-7.9
		c0.8-2.4,2-4.4,3.5-6c1.5-1.7,3.4-2.9,5.5-3.8c2.1-0.9,4.5-1.4,7.1-1.4c2.8,0,5.2,0.5,7.4,1.4c2.1,1,3.9,2.3,5.4,4.1
		c1.4,1.8,2.5,4,3.2,6.5c0.7,2.6,1,5.5,0.8,8.7h-27.7c0.1,1.9,0.5,3.5,1.1,5c0.6,1.5,1.3,2.7,2.3,3.7s2.1,1.8,3.4,2.3
		S2167.4,2017,2169,2017z M2179.4,2000.4c-0.3-3.4-1.3-6-3.1-7.8c-1.8-1.8-4.3-2.7-7.4-2.7c-3.1,0-5.5,0.9-7.4,2.7s-3,4.4-3.5,7.8
		H2179.4z"/>
	<path d="M2225.4,1973.4v48.2h-6v-5.7c-1.2,2.1-2.7,3.7-4.7,4.9c-2,1.2-4.4,1.8-7.4,1.8c-2.5,0-4.8-0.5-6.8-1.4
		c-2-0.9-3.8-2.2-5.2-3.9c-1.4-1.7-2.5-3.7-3.3-6c-0.8-2.3-1.2-4.9-1.2-7.7c0-2.8,0.4-5.4,1.2-7.8c0.8-2.3,1.9-4.4,3.3-6
		c1.4-1.7,3.2-3,5.2-3.9c2-0.9,4.3-1.4,6.8-1.4c2.9,0,5.4,0.6,7.4,1.8c2,1.2,3.5,2.8,4.7,4.9v-17.7H2225.4z M2208.4,1990.1
		c-1.9,0-3.5,0.3-4.9,1c-1.4,0.7-2.5,1.6-3.5,2.8c-0.9,1.2-1.6,2.6-2.1,4.2c-0.5,1.7-0.7,3.5-0.7,5.5c0,2,0.2,3.9,0.7,5.5
		c0.5,1.7,1.2,3.1,2.1,4.2c0.9,1.2,2.1,2.1,3.5,2.7s3,1,4.9,1c1.9,0,3.5-0.3,4.9-1c1.4-0.7,2.5-1.6,3.4-2.7c0.9-1.2,1.6-2.6,2-4.2
		c0.4-1.7,0.7-3.5,0.7-5.4c0-2.1-0.2-3.9-0.7-5.6c-0.5-1.7-1.2-3.1-2.1-4.2c-0.9-1.2-2.1-2.1-3.5-2.7S2210.2,1990.1,2208.4,1990.1z"
		/>
	<path d="M2235.5,1979v-6.2h6v6.2H2235.5z M2235.5,2021.5v-36.1h6v36.1H2235.5z"/>
	<path d="M2256.7,2005.2c0,2,0.2,3.7,0.7,5.2c0.5,1.5,1.1,2.7,2,3.6c0.9,1,1.9,1.7,3.1,2.1c1.2,0.5,2.6,0.7,4,0.7s2.9-0.2,4.1-0.7
		c1.2-0.5,2.3-1.2,3.1-2.1s1.5-2.2,2-3.6c0.5-1.5,0.7-3.2,0.7-5.2v-19.8h6v36.1h-6v-5.2c-0.4,0.8-1,1.6-1.6,2.4
		c-0.6,0.8-1.4,1.4-2.3,2c-0.9,0.6-2,1-3.2,1.4c-1.2,0.3-2.6,0.5-4.1,0.5c-2.2,0-4.1-0.3-5.9-1c-1.8-0.6-3.3-1.6-4.6-3
		c-1.3-1.3-2.3-3-2.9-5.1c-0.7-2-1-4.5-1-7.2v-20.9h6V2005.2z"/>
	<path d="M2313.4,2000c0-1.8-0.2-3.3-0.6-4.6c-0.4-1.3-0.9-2.3-1.6-3.1c-0.7-0.8-1.5-1.3-2.5-1.7c-1-0.4-2-0.5-3.2-0.5
		c-1.2,0-2.2,0.2-3.2,0.5c-1,0.4-1.8,0.9-2.5,1.7s-1.2,1.8-1.6,3.1c-0.4,1.3-0.6,2.8-0.6,4.6v21.5h-6v-36.1h6v4.4
		c0.9-1.6,2-2.9,3.5-3.9c1.5-1,3.3-1.5,5.6-1.5c2.7,0,4.9,0.5,6.8,1.5c1.9,1,3.3,2.6,4.2,4.8c1-2,2.4-3.5,4.1-4.6
		c1.7-1.1,3.8-1.7,6.2-1.7c4.1,0,7.2,1.2,9.5,3.5c2.2,2.4,3.4,6,3.4,11v22.5h-6V2000c0-1.8-0.2-3.3-0.6-4.6
		c-0.4-1.3-0.9-2.3-1.6-3.1c-0.7-0.8-1.5-1.3-2.5-1.7c-1-0.4-2-0.5-3.2-0.5c-1.2,0-2.2,0.2-3.2,0.5c-1,0.4-1.8,0.9-2.5,1.7
		c-0.7,0.8-1.2,1.8-1.6,3.1c-0.4,1.3-0.6,2.8-0.6,4.6h0v21.5h-6V2000z"/>
</g>
<g>
	<g>
		<path class="st1" d="M2512.4,1407.8v-163.4h122.3v163.4h-20.2v-144.2h-81.9v144.2H2512.4z"/>
		<path class="st1" d="M2666.2,1407.8v-163.4h61.4c8.9,0,16.7,1.2,23.5,3.6c6.8,2.4,12.5,5.8,17.2,10.2c4.7,4.4,8.2,9.8,10.6,16.2
			c2.4,6.4,3.6,13.6,3.6,21.5c0,7.9-1.2,15.1-3.6,21.4c-2.4,6.4-5.9,11.8-10.6,16.2c-4.7,4.5-10.4,7.9-17.2,10.3
			c-6.8,2.4-14.6,3.6-23.4,3.6h-41.2v60.4H2666.2z M2686.3,1328.3h41.1c11,0,19.5-2.8,25.5-8.5c6-5.6,9-13.6,9-23.9
			c0-10.3-3-18.2-9-23.9c-6-5.6-14.5-8.5-25.5-8.5h-41.1V1328.3z"/>
		<path class="st1" d="M2930.8,1407.7h-21.2l-13.1-38.2h-69l-13,38.2h-21.2l55.8-163.4h25.8L2930.8,1407.7z M2890.1,1350.5
			l-28.1-82.8l-28.1,82.8H2890.1z"/>
		<path class="st1" d="M3064.5,1361c0,8.4-1.5,15.7-4.6,22c-3.1,6.3-7.3,11.5-12.7,15.7c-5.4,4.2-11.8,7.3-19.2,9.4
			c-7.4,2.1-15.3,3.1-23.9,3.1c-8.3,0-16-1-23.2-2.9s-13.7-4.9-19.3-8.9c-5.7-4-10.5-9.1-14.5-15.1c-4-6.1-6.9-13.3-8.7-21.7
			l20.7-3.3c1.6,5.4,3.6,10.2,6.1,14.3c2.5,4.1,5.6,7.5,9.3,10.2c3.7,2.7,8,4.8,12.9,6.2c4.9,1.4,10.6,2.1,17.1,2.1
			c5.5,0,10.6-0.6,15.3-1.9c4.7-1.2,8.8-3.1,12.3-5.7c3.5-2.5,6.2-5.7,8.2-9.5c2-3.8,3-8.3,3-13.3c0-4.6-0.8-8.7-2.5-12.1
			c-1.7-3.5-4-6.4-6.9-8.7c-2.9-2.3-6.3-4-10.3-5.2c-3.9-1.2-8.1-1.8-12.6-1.8h-28.8v-19.3h27.6c4.7,0,8.8-0.7,12.3-2
			c3.6-1.4,6.6-3.2,9-5.6c2.4-2.4,4.3-5.2,5.6-8.5c1.3-3.3,1.9-6.8,1.9-10.7c0-4.6-1-8.6-2.9-12.1c-1.9-3.4-4.5-6.3-7.7-8.6
			c-3.2-2.3-7-4-11.3-5.1c-4.3-1.1-8.9-1.7-13.8-1.7c-11.1,0-20.1,2.7-26.9,8.1c-6.8,5.4-11.4,13.5-13.7,24.3l-21.3-3.7
			c1.9-8.5,4.8-15.7,8.6-21.8c3.9-6.1,8.5-11,13.9-14.9s11.5-6.7,18.2-8.5c6.7-1.8,13.9-2.7,21.6-2.7c8,0,15.5,1,22.3,2.9
			c6.8,2,12.8,4.9,17.7,8.8c5,3.9,8.9,8.8,11.8,14.7c2.9,5.9,4.3,12.7,4.3,20.5c0,4.2-0.5,8.1-1.6,11.9c-1.1,3.7-2.6,7.1-4.5,10.2
			s-4.2,5.8-6.8,8.1c-2.6,2.3-5.5,4.2-8.6,5.7c3.4,0.9,6.7,2.5,9.9,4.7c3.2,2.2,6.1,5,8.6,8.2c2.5,3.2,4.5,6.9,6,10.9
			C3063.8,1351.9,3064.5,1356.3,3064.5,1361z"/>
		<path class="st1" d="M3080.3,1388.6h13.5c2.6-3.2,4.8-7.8,6.4-13.8c1.6-6,2.9-13,3.7-21c0.9-8,1.4-16.8,1.7-26.2
			c0.3-9.5,0.5-19.2,0.5-29.3v-53.9h109.8v144.2h18.3v49.8h-20.2v-30.6h-113.6v30.6h-20.1V1388.6z M3195.7,1388.6v-125h-70.5v47.8
			c0,9.3-0.2,18-0.7,26.2c-0.5,8.1-1.1,15.5-2,22.1c-0.9,6.6-1.9,12.4-3,17.3c-1.2,4.9-2.5,8.8-4,11.7H3195.7z"/>
		<path class="st1" d="M3258.9,1407.8v-163.4h20.2v72h85.3v-72h20.2v163.4h-20.2v-72.2h-85.3v72.2H3258.9z"/>
		<path class="st1" d="M3521.1,1407.8v-128.3l-84.9,128.3h-20.2v-163.4h20.2v128.3l84.9-128.3h20.2v163.4H3521.1z"/>
		<path class="st1" d="M3572.9,1244.4h20.2v77l71-77h25.2l-73.7,79.3l79.4,84.1h-25.9l-76.1-80.1v80.1h-20.2V1244.4z"/>
		<path class="st1" d="M1810.8,1680.1v-163.4h20.2v72h85.3v-72h20.2v163.4h-20.2v-72.2h-85.3v72.2H1810.8z"/>
		<path class="st1" d="M2093.7,1680h-21.2l-13.1-38.2h-69l-13,38.2h-21.2l55.8-163.4h25.8L2093.7,1680z M2053.1,1622.8L2025,1540
			l-28.1,82.8H2053.1z"/>
		<path class="st1" d="M2158.8,1680.1v-163.4h20.2v72h85.3v-72h20.2v163.4h-20.2v-72.2h-85.3v72.2H2158.8z"/>
		<path class="st1" d="M2441.7,1680h-21.2l-13.1-38.2h-69l-13,38.2h-21.2l55.8-163.4h25.8L2441.7,1680z M2401,1622.8L2373,1540
			l-28.1,82.8H2401z"/>
		<path class="st1" d="M2461.7,1516.7h103.1v19.2h-82.9v44.6h41.9c8.8,0,16.6,1.2,23.3,3.7c6.8,2.5,12.4,5.9,17,10.3
			c4.5,4.4,8,9.6,10.4,15.7c2.4,6.1,3.5,12.8,3.5,20.1c0,7.3-1.2,14-3.5,20.1c-2.4,6.1-5.8,11.4-10.4,15.8
			c-4.5,4.4-10.2,7.8-17,10.3c-6.8,2.5-14.5,3.7-23.3,3.7h-62.1V1516.7z M2521.5,1660.9c6.2,0,11.5-0.8,16-2.3
			c4.5-1.5,8.2-3.6,11.2-6.4c3-2.7,5.2-6,6.6-9.7c1.4-3.7,2.1-7.8,2.1-12.3c0-4.5-0.7-8.6-2.1-12.3c-1.4-3.7-3.6-7-6.6-9.7
			c-3-2.7-6.7-4.8-11.2-6.4c-4.5-1.5-9.8-2.3-16-2.3h-39.7v61.3H2521.5z"/>
		<path class="st1" d="M2600.5,1680.1v-163.4h102.7v19.2h-82.5v51.2h69v19.2h-69v54.7h82.5v19.2H2600.5z"/>
		<path class="st1" d="M2730.2,1680.1v-163.4h61.4c8.9,0,16.7,1.2,23.5,3.6c6.8,2.4,12.5,5.8,17.2,10.2c4.7,4.4,8.2,9.8,10.6,16.2
			c2.4,6.4,3.6,13.6,3.6,21.5c0,7.9-1.2,15.1-3.6,21.4c-2.4,6.4-5.9,11.8-10.6,16.2c-4.7,4.5-10.4,7.9-17.2,10.3
			c-6.8,2.4-14.6,3.6-23.4,3.6h-41.2v60.4H2730.2z M2750.4,1600.6h41.1c11,0,19.5-2.8,25.5-8.5c6-5.6,9-13.6,9-23.9
			c0-10.3-3-18.2-9-23.9c-6-5.6-14.5-8.5-25.5-8.5h-41.1V1600.6z"/>
		<path class="st1" d="M2869,1680.1v-163.4h102.7v19.2h-82.5v51.2h69v19.2h-69v54.7h82.5v19.2H2869z"/>
		<path class="st1" d="M3087.3,1600l-76.1,80.1h-25.9l79.4-84.1l-73.7-79.3h25.2l71,77v-77h20.2v77l71-77h25.2L3130,1596l79.4,84.1
			h-25.9l-76.1-80.1v80.1h-20.2V1600z"/>
		<path class="st1" d="M3227.4,1680.1v-163.4h20.2v72h85.3v-72h20.2v163.4h-20.2v-72.2h-85.3v72.2H3227.4z"/>
		<path class="st1" d="M3451.3,1683.5c-12.2,0-23-2.1-32.3-6.2c-9.4-4.2-17.3-10-23.7-17.5c-6.4-7.5-11.3-16.5-14.6-26.9
			s-5-21.9-5-34.5c0-12.6,1.7-24.2,5-34.6s8.2-19.4,14.6-26.9c6.4-7.5,14.3-13.3,23.7-17.4c9.4-4.1,20.2-6.2,32.3-6.2
			c12.2,0,23,2.1,32.3,6.2c9.4,4.1,17.3,9.9,23.7,17.4c6.4,7.5,11.3,16.5,14.6,26.9c3.3,10.4,5,22,5,34.6c0,12.6-1.7,24.1-5,34.5
			c-3.3,10.4-8.2,19.4-14.6,26.9c-6.4,7.5-14.3,13.3-23.7,17.5C3474.2,1681.4,3463.4,1683.5,3451.3,1683.5z M3451.3,1664.2
			c9.1,0,17-1.6,23.8-4.8c6.8-3.2,12.5-7.7,17-13.4c4.5-5.8,7.9-12.7,10.2-20.8c2.3-8.1,3.4-17,3.4-26.8c0-9.8-1.1-18.7-3.4-26.8
			c-2.3-8.1-5.7-15-10.2-20.8c-4.5-5.8-10.2-10.3-17-13.4c-6.8-3.2-14.7-4.8-23.8-4.8c-9.1,0-17,1.6-23.8,4.8
			c-6.8,3.2-12.4,7.7-17,13.4c-4.5,5.8-7.9,12.7-10.2,20.8c-2.3,8.1-3.4,17-3.5,26.8c-0.1,9.8,1,18.7,3.3,26.8
			c2.3,8.1,5.7,15,10.3,20.8c4.6,5.8,10.3,10.3,17.1,13.4C3434.2,1662.6,3442.2,1664.2,3451.3,1664.2z"/>
		<path class="st1" d="M3654.6,1680.1v-128.3l-84.9,128.3h-20.2v-163.4h20.2V1645l84.9-128.3h20.2v163.4H3654.6z M3613,1502.4
			c-5.6,0-10.7-1.4-15.4-4.1c-4.7-2.8-8.5-6.5-11.2-11.3c-2.7-4.8-4.1-9.9-4.1-15.5h16.2c0,2.6,0.7,5.1,2,7.3c1.3,2.2,3.1,4,5.3,5.3
			c2.2,1.3,4.6,2,7.3,2c2.7,0,5.2-0.7,7.4-2c2.2-1.3,4-3.1,5.2-5.3c1.3-2.2,1.9-4.7,1.9-7.3h16.2c0,5.6-1.4,10.8-4.1,15.5
			c-2.7,4.8-6.5,8.5-11.2,11.3C3623.8,1501.1,3618.6,1502.4,3613,1502.4z"/>
	</g>
</g>
<line class="st5" x1="0" y1="1080" x2="3840" y2="1080"/>
<line class="st5" x1="1632.5" y1="0.5" x2="1632.5" y2="1080.5"/>
</svg>
